
<svg xmlns="http://www.w3.org/2000/svg" width="75.5738mm" height="74.477mm" viewBox="0 0 7557.38 7447.7">
    <style>
        .fil0 {fill:#56271B}
    </style>
    <path class="fil0" d="M3452.37 4167.7c-528.49,120.07 -329.67,224.01 -681.23,355.26 -127.35,47.55 -150.47,27.25 -250.3,118.71 -206.79,189.47 30.29,59.51 -409.28,308.73 -138.84,78.72 -325.37,223.73 -451.67,264.06 2.03,-243.05 91.5,-1000.97 215.64,-1218.68 142.5,-249.82 34.26,-48.05 88.95,-341.29 259.69,-88.52 899.69,43.51 1184.62,-50.56 440.22,-145.32 324.79,-870.68 11.52,-1200.89 92.42,-97.84 283.45,-35.58 289.86,56.9 3.45,49.68 -5.93,107.9 -35.86,137.83 -16.94,16.94 -33.85,42.36 -25.41,101.6 9.08,63.61 158.46,54.01 228.61,50.8 109.83,-5.02 228.55,-49.01 228.61,-16.92 0.34,143.25 152.4,237.06 177.78,380.98 30.23,171.35 101.33,309.82 107.7,446.35 -282.19,109.57 -200.86,143.15 -404.66,220.79 -198.69,75.67 -212.96,167.99 -274.88,386.33zm-1349.89 -829.22c23.21,-204.12 219.67,-271.93 381.05,-369.09 164.53,-99.05 333.36,-181.24 403.95,-374.64 366.78,137.52 326.89,651.89 204.76,724.61 -73.95,44.02 -840.82,23.83 -989.76,19.12zm-728.92 -704.72c153.11,190.62 55.65,433.23 -22.16,607.35 -249.86,-56.08 -349.94,-547.78 22.16,-607.35zm1355.59 -687.07c-37.82,-208.24 -165.99,-123.11 -293.34,-191.03 -82.79,-61.1 -98.58,-32.84 -200.18,-37.65 -126.81,-6 -62.09,-18.3 -194.73,7.12 -189.2,36.23 -284.53,-54.22 -373.28,136.5l-1059.13 -96.75c-99.8,-152.06 -95.13,-369.79 -279.01,-404.02 -442.32,-82.32 -420.69,1368.9 -46.22,1437.6 196.79,-24.06 153.58,-94.76 245.18,-233.16 80.35,-121.39 267.52,-97.7 422.02,-102.38 -38.9,123.93 -96.41,114.41 -167.34,265.93 -121.39,259.38 -22.23,501.08 154.12,684.96 113.33,118.21 138.51,88.69 293.24,167.04 -21.21,173.1 -66.45,13.15 -106.27,232.98 -97.47,537.75 -488.34,827.88 -650.6,1966.03 -63.17,442.96 -149.14,969.97 326.52,1047.03 225.06,36.5 428.69,-60.25 604.2,-148.02 187.21,-93.64 342.65,-236.95 510.2,-275.55 52.43,107.42 91.6,194.93 382.5,106.07 330.18,-110.07 177.79,-143.93 215.5,-183.17 77.07,-68.73 258.81,-81.67 349.87,-16.33 64.56,106.64 103.26,940.11 103.36,1137.81l244.27 -2.98c1179.98,-74.01 2593.59,-371.66 3680.98,-843.9 85.74,-37.24 380.37,-149.08 424.05,-206.75 67.27,-88.83 243.36,-880.37 242.31,-1035.75 -1.26,-180.22 -67.92,-366.68 -126.1,-519.21l-152.23 -477.33c-140.4,-340.48 -807.98,-589.09 -1182.39,-740.7 -141.55,-57.31 -351.36,-96.22 -464.68,-172.67 -88.38,-507.04 -413.14,-213.87 140.71,-861.89 149.48,-174.9 168.26,-342.15 288.02,-515.66 130.44,-189 502.27,-177.03 51.07,-1076.54 -171.24,-341.4 -510.37,-508.03 -887.04,-689.27 -330.76,-159.18 -848.99,-325.27 -1262.46,-303.03 -101.47,316.62 -20.2,659.34 -77.91,835.49 -213.13,650.46 -212.11,324.56 -151.05,687.95 -388.6,167.58 -245.39,215.36 -147.72,448.62 -94.62,195.03 -191.03,188.86 -455.67,157.58 -123.05,-14.54 -369.29,-66.15 -400.77,-184.97z"/>
</svg>
