
<svg xmlns="http://www.w3.org/2000/svg" width="54.5294mm" height="82.296mm" viewBox="0 0 5452.94 8229.6">
    <style>
        .fil2 {fill:none}
        .fil0 {fill:#EB6212}
        .fil1 {fill:#F7BD9B}
    </style>
    <g>
        <path class="fil0" d="M1348.81 8229.6l65.73 0c-103.91,-596.34 -199.36,-1251.43 -277.88,-1849.55 -81.05,-617.44 -181.14,-1235.6 -271.37,-1852.22 -52.2,-356.78 -546.25,-3684.57 -515.46,-3735.28 58.26,135.91 118.88,733.94 147.53,923.22 47.23,311.99 97.63,623.77 137.83,936.72 78.77,613.09 189.7,1228.18 276.77,1841.73 176.52,1244.02 365.55,2492.96 554.8,3735.38l55.76 0 -772.09 -5253.43c176.32,42.85 622.35,384.13 1347.06,299.03 616.11,-72.35 676.53,279.32 1071.53,566.13 203.62,147.85 375.73,200.69 626.71,148.51 696.34,-144.76 1311.89,678.22 1574.27,856.45 32.14,-40.56 81.83,-235.58 82.94,-280.36 -285.03,-14.22 -258.38,45.11 -491.01,-148.32 -107.89,-89.71 -231.92,-192.14 -332.39,-287.83 -281.5,-268.15 -392.67,-363.39 -767.73,-490.63 -315.75,-107.09 -505.05,-314 -671,-590.36 -375.72,-625.78 -322.46,-330.22 -648.23,-592.81 50.98,-122.28 324.6,-256.54 454.74,-277.64 379.28,-61.46 810.38,165.78 1148.72,311.18 87.25,37.49 173.08,68.21 252.56,122.46 70.46,48.09 117.37,127.01 192.96,162.79l-112.46 -317.46c-237.39,-35.72 -282.24,68.84 -663.09,-203.22 -164.73,-117.66 -326.19,-269.77 -459.89,-405.25 -615.25,-623.42 -670.8,-436.76 -1208.88,-426.81 -347.33,6.42 -953.38,-296.25 -1273.15,-441.37 -101.03,-45.84 -200.96,-89.45 -298.65,-133.34 -144.27,-64.81 -177.21,-55.91 -189.56,-233.3 -7.95,-113.92 29.3,-329.83 5.55,-405.29 -21.81,-69.3 -129.9,-189.18 -194.98,-208.73 -278.21,388.9 106.95,466 8.73,701.39 -60.35,144.62 -258.6,579.81 -191.45,710.02 200.24,33.63 53.73,-296.07 178.72,-506.91 24.88,41.38 -28.32,439.1 -35.38,530.74 -31.79,411.49 -85.57,307.11 -107.62,500.23 315.86,-19.26 147.47,-141.52 142.93,-268.97 -2.44,-68.93 33.57,-601.94 74.04,-664.82 65.04,111.77 230.41,1488.46 279.25,1802.66 41.56,267.21 -179.69,434.36 -55.9,490.25l60.61 -138.23c35.19,49.02 4.69,168.44 -14.72,265.15 -86.85,-36.05 -20.26,-34.38 -97.25,-96.73 -54,78.81 -79.21,204.75 -87.65,305.8 108.53,0.29 91.89,-20.15 172.88,-60.42 -15.3,497.43 -61.08,336.03 -112.13,565.82 113.73,2.58 114.51,-4.71 213.57,-41.12 -27.72,-257.28 -73.54,64.02 -37.29,-548.16 9.66,-162.84 2.15,-129.63 45.2,-177.83l715.82 4860.73z"/>
        <path class="fil1" d="M1414.54 8229.6l52.22 0c-189.25,-1242.42 -378.28,-2491.36 -554.8,-3735.38 -87.07,-613.55 -198,-1228.64 -276.77,-1841.73 -40.2,-312.95 -90.6,-624.73 -137.83,-936.72 -28.65,-189.28 -89.27,-787.31 -147.53,-923.22 -30.79,50.71 463.26,3378.5 515.46,3735.28 90.23,616.62 190.32,1234.78 271.37,1852.22 78.52,598.12 173.97,1253.21 277.88,1849.55z"/>
    </g>
</svg>
