<svg version="1.1" id="Layer_1" xmlns="http://www.w3.org/2000/svg" xmlns:xlink="http://www.w3.org/1999/xlink" x="0px" y="0px"
	 width="100%" viewBox="0 0 512 512" enable-background="new 0 0 512 512" xml:space="preserve">
<path fill="#FFFFFE" opacity="1.000000" stroke="none" 
	d="
M213.000000,513.000000 
	C142.348251,513.000000 71.696503,513.000000 1.022379,513.000000 
	C1.022379,342.384277 1.022379,171.768570 1.022379,1.076425 
	C171.579666,1.076425 342.159363,1.076425 512.869507,1.076425 
	C512.869507,171.543579 512.869507,342.087280 512.869507,513.000000 
	C416.643646,513.000000 320.286835,513.000000 223.408081,512.667236 
	C222.649506,511.237762 222.412872,510.141083 222.305603,508.806580 
	C222.157623,507.753204 221.880295,506.937653 221.663742,505.758331 
	C221.495193,503.933197 221.265854,502.471863 221.180298,500.774719 
	C220.976227,499.526672 220.628372,498.514374 220.318710,497.124084 
	C220.214752,495.491333 220.072586,494.236633 220.067703,492.699249 
	C219.728256,490.298798 219.251511,488.181000 218.816849,485.653107 
	C218.620804,484.186462 218.382690,483.129913 218.288940,481.746338 
	C218.075073,480.085785 217.716858,478.752319 217.419434,477.078247 
	C217.342773,475.831451 217.205307,474.925232 217.215485,473.757324 
	C216.988449,472.182892 216.613785,470.870117 216.279327,469.236694 
	C216.221466,468.279785 216.123398,467.643555 216.171082,466.698608 
	C215.764130,463.627686 215.211411,460.865509 214.696732,457.716339 
	C214.573059,456.578461 214.411362,455.827637 214.377899,454.741089 
	C214.114136,453.083252 213.722137,451.761108 213.385254,450.138428 
	C213.343201,449.238953 213.246033,448.639984 213.301758,447.707550 
	C212.725449,443.751801 211.996231,440.129578 211.305511,436.255707 
	C211.259720,435.677765 211.175385,435.351410 211.237213,434.758911 
	C211.020187,433.154144 210.657013,431.815582 210.339523,430.168030 
	C210.283112,429.246674 210.181015,428.634308 210.219543,427.734009 
	C209.964783,425.856171 209.569382,424.266205 209.216583,422.393433 
	C209.176361,421.741486 209.093521,421.372375 209.154297,420.766907 
	C209.004364,419.480835 208.710831,418.431122 208.443634,417.078125 
	C208.326660,416.186737 208.183319,415.598602 208.195282,414.787628 
	C208.111435,413.746979 207.872299,412.929138 207.671936,411.743042 
	C207.453445,409.911133 207.196198,408.447571 207.085419,406.794891 
	C206.935226,405.886322 206.638550,405.166840 206.400162,404.077026 
	C206.303696,402.470703 206.148941,401.234650 206.128021,399.735596 
	C205.890198,398.224640 205.518555,396.976715 205.181519,395.383179 
	C205.119965,394.352631 205.023773,393.667694 205.053223,392.807251 
	C205.024063,392.113220 204.869247,391.594666 204.745239,390.686310 
	C204.557907,389.557526 204.339767,388.818481 204.254242,387.780334 
	C204.135147,386.690887 203.883438,385.900513 203.684875,384.742676 
	C203.493668,382.917328 203.249344,381.459442 203.156952,379.774445 
	C202.964462,378.535065 202.620026,377.522797 202.323044,376.131409 
	C202.214859,374.493195 202.059219,373.234131 202.041626,371.747681 
	C201.856247,370.552521 201.532852,369.584808 201.229614,368.251160 
	C201.135864,366.916199 201.021957,365.947144 201.033051,364.801147 
	C201.010773,364.108063 200.863480,363.591949 200.729523,362.725922 
	C200.577316,361.944916 200.411804,361.513855 200.364349,360.778076 
	C200.229126,359.675934 199.975815,358.878479 199.758499,357.717224 
	C199.555420,355.909607 199.316330,354.465790 199.223297,352.759979 
	C198.995499,351.180176 198.621628,349.862366 198.293991,348.226501 
	C198.241882,347.276520 198.143539,346.644623 198.186768,345.746368 
	C197.956436,344.187378 197.584534,342.894775 197.257629,341.273804 
	C197.194946,340.295349 197.087265,339.645264 197.111664,338.766541 
	C197.043045,337.727020 196.842392,336.916138 196.670166,335.753510 
	C196.549042,334.961243 196.399521,334.520721 196.377625,333.746948 
	C196.198608,332.319550 195.891953,331.225372 195.655426,329.787598 
	C195.494705,328.299194 195.263885,327.154358 195.191681,325.751709 
	C194.983185,324.176025 194.616104,322.858154 194.286346,321.220276 
	C194.219360,320.268036 194.115051,319.635773 194.162811,318.680908 
	C193.620255,314.759949 192.925613,311.161591 192.259583,307.296448 
	C192.193207,306.686737 192.098236,306.343842 192.148499,305.738342 
	C191.949127,304.158234 191.604507,302.840729 191.312607,301.206238 
	C191.250229,300.261414 191.135132,299.633545 191.164673,298.684631 
	C190.660080,295.045105 190.010849,291.726654 189.405090,288.104919 
	C189.319351,287.206848 189.190155,286.611969 189.210678,285.753326 
	C188.992508,284.169678 188.624603,282.849792 188.321838,281.175079 
	C188.241974,279.876038 188.096970,278.931824 188.082123,277.722534 
	C187.870087,276.191132 187.527893,274.924805 187.226471,273.378845 
	C187.184326,272.734375 187.101395,272.369568 187.146912,271.731354 
	C186.961578,270.115570 186.647827,268.773193 186.385773,267.197449 
	C186.440002,266.636719 186.357941,266.332062 186.343231,265.788269 
	C186.220444,264.383636 185.945724,263.240936 185.712296,261.688446 
	C185.561478,260.211060 185.369354,259.143463 185.283340,257.741333 
	C185.023376,256.099335 184.657318,254.791779 184.330048,253.133591 
	C184.242935,251.854599 184.117065,250.926254 184.124725,249.759949 
	C183.922760,248.528778 183.587265,247.535553 183.279907,246.183258 
	C183.177948,244.875885 183.047836,243.927597 183.042114,242.776062 
	C182.905304,241.850845 182.644104,241.128891 182.413483,240.167877 
	C182.419159,239.599319 182.310165,239.300507 182.243881,238.824463 
	C182.106766,237.856979 181.842865,237.097412 181.626343,236.169128 
	C181.712234,235.748978 181.641907,235.532974 181.483734,235.351135 
	C181.504715,235.349823 181.528030,235.313477 181.803391,235.063873 
	C182.762344,234.561295 183.445953,234.308334 184.391418,234.296112 
	C185.097931,234.693588 185.542587,234.850357 186.092468,235.271057 
	C186.850861,235.734467 187.504028,235.933899 188.429718,236.357666 
	C189.767807,237.073898 190.833374,237.565826 192.037338,238.362885 
	C199.113678,241.098068 206.051605,243.528107 213.245636,246.064941 
	C213.868378,246.202469 214.234985,246.233185 214.722305,246.483032 
	C215.558945,246.788727 216.274902,246.875275 217.291504,247.079651 
	C218.232742,247.246841 218.873337,247.296173 219.739166,247.591919 
	C221.015457,247.923264 222.066513,248.008224 223.461304,248.263000 
	C224.561615,248.512054 225.318207,248.591293 226.262482,248.863861 
	C227.298157,249.029709 228.146103,249.002243 229.326935,249.087402 
	C230.591492,249.272675 231.523163,249.345352 232.688538,249.646454 
	C234.609467,249.896774 236.296738,249.918686 238.430084,250.017395 
	C241.586960,250.050705 244.297745,250.007187 247.299698,250.104828 
	C249.034973,250.050568 250.479095,249.855179 252.287842,249.680817 
	C254.100891,249.471298 255.549301,249.240738 257.343994,249.182327 
	C261.131500,249.255890 264.572723,249.157303 268.339600,249.217865 
	C270.075500,249.641769 271.485687,249.906540 272.854187,250.159241 
	C272.812439,250.147156 272.796478,250.232559 272.931885,250.481232 
	C273.751282,250.867935 274.435242,251.005981 275.416382,251.328156 
	C276.371490,251.740402 277.029388,251.968521 277.840820,252.447021 
	C278.700562,252.951355 279.406738,253.205292 280.358887,253.672363 
	C281.377350,254.271683 282.149902,254.657852 283.041168,255.305862 
	C283.808563,255.888153 284.457214,256.208618 285.358704,256.771423 
	C292.387695,263.353546 299.163879,269.693298 306.039185,276.328003 
	C307.127014,277.272278 308.115723,277.921539 309.304016,278.796906 
	C310.003326,279.348175 310.503052,279.673401 311.116455,280.294434 
	C312.515625,281.275391 313.801117,281.960541 315.253967,282.802246 
	C315.421326,282.958832 315.863617,283.079346 316.014709,283.380066 
	C320.448761,285.140198 324.731750,286.599609 329.364136,288.186768 
	C331.185699,288.380615 332.657837,288.446808 334.291901,288.727356 
	C335.466736,288.749664 336.479675,288.557556 337.807861,288.404114 
	C338.742615,288.323364 339.362091,288.203949 340.211670,288.232147 
	C341.445526,288.023834 342.449310,287.667847 343.714996,287.335815 
	C344.312256,287.265930 344.647614,287.172058 345.314575,287.205566 
	C351.764618,287.557159 357.883057,287.781433 364.224426,288.135986 
	C364.786102,288.309265 365.124817,288.352264 365.697540,288.652100 
	C368.995117,290.021576 372.058685,291.134186 375.411499,292.449707 
	C376.778748,293.113922 377.856750,293.575256 379.066742,294.332275 
	C381.150391,295.650269 383.102051,296.672638 385.333069,297.911102 
	C389.449738,300.639038 393.287018,303.150909 397.124329,305.662750 
	C397.530975,305.106415 397.937653,304.550079 398.344330,303.993744 
	C394.287109,300.535126 390.229858,297.076508 386.015747,293.333954 
	C383.089935,290.621979 380.321014,288.193909 377.401672,285.472656 
	C376.545898,284.682098 375.840515,284.184723 375.006897,283.438049 
	C374.264709,282.787384 373.650818,282.386047 372.932068,281.727417 
	C372.204102,281.140503 371.580933,280.810852 370.749817,280.222992 
	C369.423126,279.298859 368.304382,278.632935 367.027588,277.669312 
	C360.898773,274.836334 354.928070,272.301025 348.654602,269.570343 
	C347.877960,269.325775 347.404053,269.276581 346.748535,269.004303 
	C346.034637,268.625793 345.502380,268.470398 344.738647,268.147278 
	C344.133698,267.930145 343.760162,267.880768 343.223083,267.586914 
	C342.358429,267.126770 341.657318,266.911072 340.681305,266.456665 
	C338.307983,265.129272 336.209564,264.040619 333.992432,262.697937 
	C333.235291,262.123840 332.596863,261.803772 331.761963,261.237183 
	C331.037720,260.662781 330.509979,260.334839 329.888916,259.743225 
	C329.185181,259.115112 328.574707,258.750671 327.763184,258.101807 
	C322.588501,251.889008 317.614807,245.960648 312.630219,239.709259 
	C311.786835,238.164978 310.954407,236.943756 310.068329,235.408691 
	C309.527008,234.409439 309.039337,233.724014 308.552795,232.719818 
	C307.731689,231.201431 306.909454,230.001816 306.041870,228.571854 
	C305.996490,228.341507 305.642456,228.033035 305.620911,227.748596 
	C305.103546,226.926926 304.607758,226.389709 304.074280,225.902420 
	C304.036560,225.952347 304.149628,225.898697 304.111176,225.579788 
	C303.385895,224.481949 302.699097,223.703018 301.886475,222.623047 
	C299.874695,220.533310 297.988739,218.744644 295.960144,216.656296 
	C291.862518,214.469559 287.907501,212.582489 283.727509,210.468262 
	C283.098663,210.117859 282.694794,209.994614 282.162659,209.611908 
	C281.342224,209.073563 280.650055,208.794678 279.744019,208.248230 
	C278.922272,207.685165 278.314423,207.389648 277.587677,206.709763 
	C277.502716,205.537552 277.536621,204.749741 277.855164,203.817749 
	C278.417603,203.355530 278.695374,203.037445 279.261108,202.690674 
	C280.072144,202.124939 280.595245,201.587875 281.399719,200.960602 
	C282.110474,200.469864 282.539795,200.069366 283.258545,199.639343 
	C284.103241,199.104431 284.658539,198.599030 285.534821,197.995270 
	C286.554535,197.348907 287.253296,196.800903 288.216034,196.298523 
	C289.001160,195.902222 289.522278,195.460281 290.325623,194.995361 
	C291.075226,194.675217 291.542542,194.378082 292.408264,194.045715 
	C296.500916,192.900070 300.195190,191.789642 304.334534,190.761902 
	C306.885986,190.792267 308.992371,190.739929 311.431396,190.864395 
	C315.185638,191.388138 318.607239,191.735077 322.240601,192.204620 
	C322.452423,192.327225 322.936432,192.402954 322.936432,192.402954 
	C322.936432,192.402954 323.404083,192.256958 323.661926,192.520416 
	C336.263428,197.631958 348.609711,202.473206 360.949768,207.330414 
	C369.977509,210.883881 378.669373,214.950806 384.761719,222.987335 
	C384.934723,223.215530 385.544434,223.112701 386.223206,223.198837 
	C384.526825,218.217545 382.779846,213.575867 381.392914,208.828995 
	C380.585114,206.064163 379.114075,205.044830 376.337646,205.420944 
	C368.324951,206.506409 360.787109,204.959671 353.793304,200.960022 
	C350.113953,198.855881 346.569336,196.516129 342.759705,194.003983 
	C340.262207,191.838699 337.863953,190.064941 335.693817,188.045959 
	C326.763123,179.737396 317.901733,171.354324 308.891510,162.696320 
	C307.552338,161.493271 306.336548,160.592545 304.968903,159.428955 
	C303.640228,158.406570 302.463409,157.647049 301.147827,156.625732 
	C300.335327,156.020355 299.661652,155.676773 298.740204,155.101166 
	C296.862610,154.180054 295.232788,153.490967 293.357910,152.537811 
	C290.077209,151.461624 287.041504,150.649506 283.783569,149.711929 
	C283.243774,149.662430 282.926147,149.738358 282.323914,149.556244 
	C278.817017,149.465790 275.594696,149.633408 272.097717,149.643097 
	C271.211273,149.581680 270.599548,149.678177 269.657318,149.690186 
	C267.463348,149.975525 265.599854,150.345383 263.823761,150.746735 
	C263.911163,150.778244 263.773895,150.653000 263.408081,150.581787 
	C256.360992,150.338593 249.679657,150.166595 242.782120,149.867523 
	C242.241608,149.762024 241.917313,149.783615 241.333069,149.534576 
	C239.384262,148.803650 237.695435,148.343338 235.848312,147.708862 
	C235.690033,147.534683 235.222595,147.479370 234.984299,147.263474 
	C222.158813,141.974045 209.571625,136.900497 196.738892,131.590271 
	C195.852371,131.174057 195.211395,130.994537 194.333221,130.543701 
	C192.775711,129.778549 191.455399,129.284714 190.099121,128.886780 
	C190.063156,128.982697 190.169617,128.807648 190.025085,128.540680 
	C188.937073,127.954803 187.993591,127.635872 186.773712,127.091995 
	C185.399887,126.428070 184.302429,125.989090 182.999557,125.306137 
	C177.972977,122.846962 173.240631,120.401581 168.300186,118.495605 
	C164.870590,117.172485 163.056778,114.861183 162.973877,111.493027 
	C162.811218,104.884987 163.204239,98.262642 163.016647,91.656174 
	C162.947647,89.226540 161.887558,86.825066 161.272217,84.269814 
	C161.264893,84.128883 161.014374,83.998856 160.955383,83.668015 
	C159.314117,81.759438 157.731842,80.181694 156.101257,78.410637 
	C155.898102,77.967056 155.673569,77.845070 155.245972,77.542191 
	C154.299072,76.538612 153.485580,75.844200 152.233719,74.775597 
	C151.370758,76.810242 150.694168,78.405441 149.849167,80.175911 
	C149.680756,80.351189 149.635422,80.835228 149.380814,81.035172 
	C146.344711,86.831024 144.832275,92.370781 149.922348,97.685837 
	C149.993423,97.750137 149.949417,97.936699 149.874237,98.139603 
	C150.338486,99.317635 150.877945,100.292755 151.500351,101.568047 
	C151.989914,102.583237 152.396530,103.298248 152.831024,104.355469 
	C152.876068,107.151382 153.502243,109.798363 152.796326,112.022568 
	C150.669418,118.724030 148.024170,125.260986 145.331497,131.928879 
	C145.004242,132.656311 144.926529,133.316956 144.805573,134.299866 
	C144.601334,135.022720 144.440369,135.423325 144.014786,135.983505 
	C143.130096,138.423386 142.510025,140.703690 141.866516,143.319641 
	C141.723938,144.086594 141.604752,144.517899 141.167969,145.062668 
	C140.969421,146.846985 140.504318,149.516495 141.321213,149.994339 
	C143.447525,151.238129 146.136383,151.520187 148.194717,152.076202 
	C148.405289,155.927170 148.625351,159.952011 148.844879,164.295471 
	C148.512115,165.388763 148.179916,166.163467 147.507935,167.024399 
	C145.885666,170.301483 144.547943,173.472931 143.407120,176.713684 
	C143.294479,177.033600 144.387070,177.777802 145.331390,178.300125 
	C146.837860,178.240341 147.933197,178.205521 149.250473,178.404053 
	C156.510071,176.902695 157.613159,174.160858 153.245453,168.591644 
	C152.860474,167.722305 152.632889,167.129166 152.582153,166.097290 
	C152.907745,160.782974 153.056473,155.907394 153.176727,150.709625 
	C153.217819,149.963242 153.287338,149.539062 153.688278,148.979355 
	C153.996490,146.560394 153.973282,144.276993 153.918091,141.538559 
	C153.938248,137.757095 153.990387,134.430634 154.440079,131.035110 
	C156.187347,134.983307 157.537048,139.000565 158.657227,143.197983 
	C158.790039,144.301895 159.152374,145.225647 159.608719,146.527039 
	C159.784744,147.939087 159.866776,148.973495 159.701447,150.247192 
	C159.883209,152.022858 160.312317,153.559235 160.833984,155.449646 
	C160.968475,156.533096 161.010406,157.262527 160.793762,158.223419 
	C161.103226,160.694885 161.671280,162.934891 162.362076,165.563110 
	C162.652222,167.301468 162.819641,168.651657 162.750015,170.174057 
	C162.838928,171.281448 163.164886,172.216629 163.596863,173.526764 
	C163.795929,174.935349 163.888977,175.968948 163.732208,177.211792 
	C163.878006,178.652374 164.273605,179.883728 164.761993,181.468018 
	C164.899139,182.547882 164.943497,183.274811 164.719879,184.268738 
	C165.158920,188.069733 165.865967,191.603714 166.682785,195.486038 
	C166.826080,196.562180 166.859604,197.289978 166.652863,198.230942 
	C166.815262,199.671738 167.217926,200.899399 167.723694,202.477982 
	C167.853027,203.557724 167.879288,204.286530 167.663910,205.222321 
	C167.795975,206.667038 168.169647,207.904755 168.642960,209.492813 
	C168.801331,210.566467 168.860062,211.289810 168.672180,212.219635 
	C168.819595,213.660751 169.213608,214.895340 169.699127,216.483398 
	C169.823486,217.564163 169.856308,218.291473 169.634796,219.248932 
	C169.816772,221.022598 170.253098,222.566147 170.782852,224.417374 
	C170.906418,225.151718 170.936554,225.578369 170.718262,226.267212 
	C170.660095,228.354782 170.850372,230.180176 170.998444,232.347900 
	C170.521896,233.752716 170.087555,234.815170 169.332153,235.995148 
	C167.325516,241.690613 165.639923,247.268555 163.670197,253.096741 
	C162.262054,258.227386 161.138031,263.107758 159.625748,269.673950 
	C163.026260,268.451569 165.078796,267.614532 167.196075,267.000824 
	C168.058441,266.750885 169.061356,266.985718 169.885818,267.389282 
	C169.779739,269.638550 169.788162,271.498566 169.540558,273.609802 
	C169.149918,275.924622 169.015305,277.988129 168.760223,280.326874 
	C168.688171,281.187927 168.736588,281.773804 168.553482,282.556488 
	C168.142532,283.502075 167.963089,284.250854 167.540558,285.262878 
	C166.815216,286.860443 166.332947,288.194794 165.599548,289.750549 
	C165.336670,291.725922 161.904297,293.287781 165.443481,295.313019 
	C166.885345,295.280640 167.937439,295.154572 169.248352,295.124207 
	C170.904495,294.572571 172.301788,293.925171 174.044800,293.202515 
	C173.558731,290.088257 172.726959,287.049255 172.150848,283.798584 
	C172.254166,282.389923 172.101807,281.192902 171.945709,279.557709 
	C172.121429,276.806183 172.300903,274.492828 172.745911,272.059143 
	C173.008316,270.959290 173.005219,269.979797 173.001740,268.570679 
	C172.989273,266.425964 172.977203,264.710876 173.081512,262.657043 
	C173.298248,261.610474 173.398590,260.902618 173.806412,260.137329 
	C174.732300,260.058167 175.350739,260.036438 175.964996,260.441559 
	C176.693512,265.901031 177.426208,270.933685 178.075531,276.343719 
	C178.385452,277.795044 178.778748,278.868927 179.224274,280.281921 
	C179.425827,281.049255 179.575150,281.477570 179.582565,282.208008 
	C179.703674,283.318817 179.966690,284.127411 180.186584,285.298187 
	C180.368591,287.091858 180.593750,288.523376 180.676178,290.225342 
	C180.926620,291.825104 181.319794,293.154388 181.671478,294.836884 
	C181.751617,296.126190 181.873230,297.062317 181.846771,298.228394 
	C182.041626,299.458282 182.384567,300.458252 182.683319,301.713104 
	C182.717926,302.301239 182.796738,302.634491 182.718079,303.253143 
	C182.923874,305.210785 183.287140,306.883026 183.616455,308.800110 
	C183.605927,309.381927 183.710754,309.691315 183.744934,310.239380 
	C183.925995,311.868317 184.259094,313.230988 184.547516,314.894043 
	C184.624893,315.785187 184.746933,316.375854 184.713379,317.251404 
	C184.963745,319.155151 185.369720,320.774078 185.734375,322.662354 
	C185.776443,323.282928 185.859818,323.634064 185.783066,324.305939 
	C186.307877,328.261597 186.992828,331.896545 187.636810,335.841003 
	C187.708771,336.761444 187.821686,337.372375 187.780380,338.218506 
	C187.978104,339.474060 188.330063,340.494415 188.636230,341.823914 
	C188.691772,342.746368 188.793106,343.359711 188.742126,344.294739 
	C189.242950,347.950348 189.896118,351.284241 190.494598,354.955933 
	C190.592789,356.186981 190.745667,357.080200 190.734344,358.229309 
	C190.941483,359.827972 191.312836,361.170776 191.623840,362.863831 
	C191.713806,364.143829 191.864136,365.073578 191.853958,366.231873 
	C192.036896,367.461273 192.380341,368.462219 192.694885,369.783752 
	C192.776169,370.735962 192.886383,371.367554 192.863617,372.269714 
	C193.058655,373.855103 193.386658,375.169861 193.682465,376.742279 
	C193.749207,377.328827 193.848175,377.657715 193.795776,378.245789 
	C193.868942,379.639557 194.093460,380.774200 194.277313,382.294434 
	C194.421005,383.423431 194.605377,384.166870 194.665009,385.244385 
	C194.902695,386.906860 195.265152,388.235229 195.582581,389.936096 
	C195.706436,391.542542 195.875320,392.776489 195.902237,394.201813 
	C196.077103,395.086304 196.393936,395.779388 196.689240,396.895813 
	C197.025620,399.848602 197.383530,402.378113 197.610077,405.239502 
	C197.739044,406.690247 197.999359,407.809113 198.222198,409.336121 
	C198.408829,410.799530 198.632935,411.854828 198.710587,413.209137 
	C198.913391,414.527802 199.262650,415.547455 199.538757,416.906219 
	C199.603897,418.153503 199.742218,419.061646 199.740845,420.239136 
	C199.978989,421.823669 200.356796,423.138855 200.713654,424.813232 
	C200.820770,426.120789 200.948853,427.069183 200.942612,428.193054 
	C200.978134,428.884735 201.147980,429.400940 201.287628,430.261230 
	C201.394562,431.039612 201.531677,431.473907 201.543549,432.244629 
	C201.719727,433.689758 202.021133,434.798431 202.272339,436.289368 
	C202.371185,437.418060 202.520218,438.164490 202.544998,439.272156 
	C202.842560,441.261719 203.264374,442.890015 203.632294,444.826660 
	C203.684265,445.747772 203.790146,446.360504 203.738861,447.235168 
	C203.968475,448.812897 204.355240,450.128754 204.706818,451.708557 
	C204.767471,452.311462 204.863312,452.650452 204.807922,453.220490 
	C205.000473,454.470612 205.344254,455.489624 205.643143,456.819092 
	C205.698349,457.744202 205.798447,458.358917 205.739410,459.233032 
	C205.951874,460.829529 206.323425,462.166626 206.638351,463.815613 
	C206.697662,464.745514 206.813599,465.363464 206.782104,466.297882 
	C207.259689,469.621460 207.884720,472.628632 208.468292,475.972656 
	C208.581345,477.196808 208.735840,478.084076 208.722717,479.198975 
	C208.898865,480.481354 209.242615,481.536102 209.515274,482.957642 
	C209.630356,484.549835 209.816544,485.775208 209.843414,487.255920 
	C210.046875,488.805664 210.409668,490.100128 210.741272,491.721130 
	C210.795639,492.695648 210.881195,493.343536 210.829758,494.295532 
	C211.205597,497.045258 211.718430,499.490875 212.194733,502.349854 
	C212.438812,506.175446 212.719406,509.587738 213.000000,513.000000 
M399.572021,305.194336 
	C398.902191,305.136993 398.232391,305.079651 397.562561,305.022339 
	C397.955139,305.746735 398.347717,306.471100 399.004303,307.807098 
	C402.970276,310.923126 406.936279,314.039124 411.256348,317.718018 
	C416.616150,323.080078 421.975952,328.442139 427.902679,334.371368 
	C429.469360,328.597382 430.852692,323.499084 432.405579,317.775879 
	C428.348877,318.011536 425.052246,318.611969 421.854706,318.274261 
	C418.624084,317.933105 415.491638,316.662170 411.998871,315.210846 
	C408.036072,312.084717 404.073273,308.958588 399.572021,305.194336 
z"/>
<path fill="#ED6C26" opacity="1.000000" stroke="none" 
	d="
M196.250000,334.080170 
	C196.399521,334.520721 196.549042,334.961243 196.477554,335.962830 
	C196.497559,337.347656 196.738571,338.171387 196.979599,338.995148 
	C197.087265,339.645264 197.194946,340.295349 197.179794,341.672638 
	C197.386398,343.604126 197.715805,344.808411 198.045197,346.012726 
	C198.143539,346.644623 198.241882,347.276520 198.205353,348.632751 
	C198.406067,350.578735 198.741653,351.800354 199.077240,353.021973 
	C199.316330,354.465790 199.555420,355.909607 199.561707,357.902222 
	C199.634705,359.328247 199.940491,360.205505 200.246277,361.082764 
	C200.411804,361.513855 200.577316,361.944916 200.546661,362.882690 
	C200.536316,363.918976 200.722183,364.448547 200.908051,364.978119 
	C201.021957,365.947144 201.135864,366.916199 201.148911,368.615662 
	C201.333237,370.222443 201.618408,371.098785 201.903595,371.975098 
	C202.059219,373.234131 202.214859,374.493195 202.229584,376.512238 
	C202.394119,378.182037 202.699570,379.091797 203.005020,380.001587 
	C203.249344,381.459442 203.493668,382.917328 203.503876,384.929443 
	C203.553711,386.348938 203.837677,387.214203 204.121628,388.079468 
	C204.339767,388.818481 204.557907,389.557526 204.562790,390.845917 
	C204.542221,391.924438 204.734909,392.453583 204.927582,392.982727 
	C205.023773,393.667694 205.119965,394.352631 205.113739,395.768402 
	C205.338928,397.665680 205.666565,398.832153 205.994202,399.998627 
	C206.148941,401.234650 206.303696,402.470703 206.299133,404.425385 
	C206.406189,405.757355 206.672562,406.370667 206.938934,406.983978 
	C207.196198,408.447571 207.453445,409.911133 207.480316,411.958252 
	C207.513275,413.364655 207.776627,414.187561 208.039978,415.010468 
	C208.183319,415.598602 208.326660,416.186737 208.327301,417.466461 
	C208.459961,419.106445 208.735336,420.054871 209.010696,421.003265 
	C209.093521,421.372375 209.176361,421.741486 209.142883,422.807007 
	C209.377350,425.009552 209.728134,426.515747 210.078903,428.021912 
	C210.181015,428.634308 210.283112,429.246674 210.243256,430.579407 
	C210.431198,432.541534 210.761124,433.783325 211.091049,435.025085 
	C211.175385,435.351410 211.259720,435.677765 211.219543,436.706512 
	C211.779648,440.952972 212.464264,444.497009 213.148865,448.041046 
	C213.246033,448.639984 213.343201,449.238953 213.287292,450.513611 
	C213.506042,452.485168 213.877838,453.780975 214.249649,455.076782 
	C214.411362,455.827637 214.573059,456.578461 214.484528,457.996948 
	C214.831299,461.445496 215.428314,464.226440 216.025330,467.007355 
	C216.123398,467.643555 216.221466,468.279785 216.193283,469.641327 
	C216.400635,471.584137 216.734253,472.801575 217.067856,474.019043 
	C217.205307,474.925232 217.342773,475.831451 217.313751,477.448608 
	C217.479706,479.464172 217.812149,480.768768 218.144592,482.073364 
	C218.382690,483.129913 218.620804,484.186462 218.593506,485.901917 
	C218.862198,488.701172 219.396301,490.841522 219.930420,492.981903 
	C220.072586,494.236633 220.214752,495.491333 220.227707,497.508270 
	C220.411179,499.183807 220.723846,500.097168 221.036514,501.010498 
	C221.265854,502.471863 221.495193,503.933197 221.473907,505.984680 
	C221.540939,507.397980 221.858582,508.221161 222.176239,509.044373 
	C222.412872,510.141083 222.649506,511.237762 222.943085,512.667236 
	C221.933334,513.000000 220.866653,513.000000 219.481476,512.571777 
	C219.026169,510.320282 219.003082,508.480042 218.734863,506.676239 
	C216.196594,489.605621 213.599411,472.543762 211.052658,455.474426 
	C207.033508,428.536469 203.045670,401.593903 199.033951,374.654877 
	C196.370224,356.767548 193.687988,338.882935 191.021545,320.572144 
	C189.818069,312.159454 188.616791,304.170288 187.392609,296.184662 
	C186.616104,291.119324 185.805496,286.059265 185.015991,280.572632 
	C183.350342,271.770172 181.678909,263.391907 179.848877,254.789185 
	C179.283371,254.573853 178.876465,254.582947 178.469559,254.592041 
	C178.678223,255.078598 178.886871,255.565140 179.055695,256.416016 
	C179.041016,257.511536 179.066208,258.242798 178.769867,258.978180 
	C177.805344,258.990723 177.162338,258.999115 176.447845,258.586121 
	C176.196243,256.466278 176.016083,254.767822 176.209564,252.997070 
	C177.061798,251.601242 177.540405,250.277695 178.413727,248.915573 
	C179.190521,247.290695 179.900406,245.699738 179.877853,244.119232 
	C179.843964,241.745453 179.296768,239.379013 179.237747,236.845001 
	C180.159363,236.237854 180.811050,235.795151 181.462738,235.352448 
	C181.641907,235.532974 181.712234,235.748978 181.475296,236.531433 
	C181.556946,237.719086 181.837021,238.375717 182.117096,239.032349 
	C182.310165,239.300507 182.419159,239.599319 182.309174,240.515594 
	C182.422104,241.728027 182.669937,242.353668 182.917755,242.979309 
	C183.047836,243.927597 183.177948,244.875885 183.197754,246.559982 
	C183.388702,248.196503 183.689941,249.097198 183.991196,249.997910 
	C184.117065,250.926254 184.242935,251.854599 184.236511,253.502060 
	C184.461884,255.506058 184.819550,256.790955 185.177246,258.075836 
	C185.369354,259.143463 185.561478,260.211060 185.507843,261.940460 
	C185.571808,263.751556 185.881546,264.900879 186.191284,266.050201 
	C186.357941,266.332062 186.440002,266.636719 186.290466,267.606995 
	C186.435135,269.501495 186.726807,270.753113 187.018463,272.004730 
	C187.101395,272.369568 187.184326,272.734375 187.146744,273.767029 
	C187.334808,275.619080 187.643387,276.803375 187.951965,277.987640 
	C188.096970,278.931824 188.241974,279.876038 188.234940,281.580933 
	C188.408920,283.566803 188.734940,284.791962 189.060944,286.017120 
	C189.190155,286.611969 189.319351,287.206848 189.296967,288.554443 
	C189.770248,292.540039 190.395126,295.772858 191.020020,299.005707 
	C191.135132,299.633545 191.250229,300.261414 191.222839,301.608521 
	C191.388000,303.552155 191.695633,304.776550 192.003265,306.000916 
	C192.098236,306.343842 192.193207,306.686737 192.175812,307.748749 
	C192.712555,311.979736 193.361649,315.491608 194.010742,319.003510 
	C194.115051,319.635773 194.219360,320.268036 194.200623,321.624115 
	C194.396072,323.568451 194.714569,324.789001 195.033081,326.009521 
	C195.263885,327.154358 195.494705,328.299194 195.469513,330.014221 
	C195.559006,331.749664 195.904510,332.914917 196.250000,334.080170 
z"/>
<path fill="#ED6920" opacity="1.000000" stroke="none" 
	d="
M176.519318,259.007507 
	C177.162338,258.999115 177.805344,258.990723 179.052216,259.258636 
	C180.820496,267.015350 181.984940,274.495728 183.118530,282.390564 
	C184.035431,289.306335 184.910904,295.819275 185.951614,302.305725 
	C186.958542,308.581696 188.135544,314.830322 189.279419,321.513000 
	C193.446671,350.841614 197.612885,379.742493 201.682068,408.657013 
	C203.947266,424.752899 206.050858,440.871521 208.181839,457.352600 
	C208.536530,459.119141 208.936661,460.512970 209.261368,462.170258 
	C209.194519,462.616119 209.203064,462.798584 209.158585,463.374695 
	C209.559341,465.102814 210.013138,466.437317 210.423035,468.137451 
	C210.382797,468.993774 210.386475,469.484467 210.274292,470.347656 
	C210.565506,472.440277 210.972549,474.160400 211.288834,476.148010 
	C211.205002,476.603699 211.211960,476.791870 211.167160,477.353943 
	C211.534164,478.762817 211.952911,479.797760 212.305298,481.224487 
	C212.233002,482.404480 212.227051,483.192780 212.171158,484.364990 
	C212.535889,486.461273 212.950546,488.173615 213.279648,490.152954 
	C213.205994,490.606506 213.217896,490.793060 213.190399,491.344330 
	C213.751953,492.839172 214.352905,493.969360 214.850281,495.392761 
	C214.572479,496.450500 214.398270,497.214996 214.181458,498.329895 
	C214.525314,499.761108 214.911774,500.841888 215.195999,502.295776 
	C215.126984,503.439331 215.160217,504.209778 215.163788,505.291138 
	C215.489410,506.041229 215.844711,506.480408 216.222015,507.326111 
	C216.227875,508.815338 216.211716,509.898010 216.150360,511.316040 
	C216.070129,512.100891 216.035065,512.550476 216.000000,513.000000 
	C215.250000,513.000000 214.500000,513.000000 213.375000,513.000000 
	C212.719406,509.587738 212.438812,506.175446 212.422073,502.092163 
	C212.112869,498.944611 211.539810,496.468018 210.966751,493.991455 
	C210.881195,493.343536 210.795639,492.695648 210.827972,491.326263 
	C210.631470,489.403381 210.317093,488.201996 210.002716,487.000580 
	C209.816544,485.775208 209.630356,484.549835 209.642059,482.565186 
	C209.523407,480.861023 209.206863,479.916199 208.890320,478.971344 
	C208.735840,478.084076 208.581345,477.196808 208.607727,475.539429 
	C208.168915,471.839996 207.549225,468.910736 206.929535,465.981445 
	C206.813599,465.363464 206.697662,464.745514 206.743439,463.406799 
	C206.569595,461.448578 206.234070,460.211121 205.898529,458.973633 
	C205.798447,458.358917 205.698349,457.744202 205.744019,456.435547 
	C205.579575,454.824219 205.269363,453.906799 204.959152,452.989410 
	C204.863312,452.650452 204.767471,452.311462 204.801041,451.303467 
	C204.585648,449.414062 204.240829,448.193634 203.896011,446.973236 
	C203.790146,446.360504 203.684265,445.747772 203.734055,444.425903 
	C203.482895,442.114807 203.076065,440.512848 202.669250,438.910919 
	C202.520218,438.164490 202.371185,437.418060 202.474762,436.066132 
	C202.374496,434.276489 202.021652,433.092346 201.668793,431.908203 
	C201.531677,431.473907 201.394562,431.039612 201.473557,430.103943 
	C201.485428,429.074249 201.281189,428.545898 201.076935,428.017578 
	C200.948853,427.069183 200.820770,426.120789 200.811066,424.406677 
	C200.579803,422.417206 200.230164,421.193512 199.880524,419.969788 
	C199.742218,419.061646 199.603897,418.153503 199.653961,416.568420 
	C199.513901,414.897675 199.185471,413.903900 198.857056,412.910095 
	C198.632935,411.854828 198.408829,410.799530 198.430176,409.118774 
	C198.364243,407.298065 198.052826,406.102814 197.741425,404.907593 
	C197.383530,402.378113 197.025620,399.848602 196.778656,396.553131 
	C196.607819,395.194916 196.326019,394.602661 196.044220,394.010437 
	C195.875320,392.776489 195.706436,391.542542 195.693314,389.565796 
	C195.495972,387.518768 195.142868,386.214539 194.789764,384.910278 
	C194.605377,384.166870 194.421005,383.423431 194.488434,382.054718 
	C194.475861,380.281830 194.211487,379.134216 193.947128,377.986633 
	C193.848175,377.657715 193.749207,377.328827 193.776062,376.341614 
	C193.600113,374.455261 193.298355,373.227173 192.996582,371.999115 
	C192.886383,371.367554 192.776169,370.735962 192.788422,369.407776 
	C192.612076,367.808533 192.313278,366.905945 192.014465,366.003357 
	C191.864136,365.073578 191.713806,364.143829 191.728577,362.454041 
	C191.561951,360.453827 191.230240,359.213654 190.898529,357.973450 
	C190.745667,357.080200 190.592789,356.186981 190.629074,354.509064 
	C190.176956,350.473938 189.535706,347.223480 188.894455,343.973022 
	C188.793106,343.359711 188.691772,342.746368 188.740295,341.439117 
	C188.571640,339.824554 188.253128,338.903900 187.934601,337.983276 
	C187.821686,337.372375 187.708771,336.761444 187.741776,335.384644 
	C187.239532,331.074249 186.591370,327.529724 185.943207,323.985229 
	C185.859818,323.634064 185.776443,323.282928 185.826218,322.242035 
	C185.595917,320.023712 185.232452,318.495148 184.868988,316.966553 
	C184.746933,316.375854 184.624893,315.785187 184.673035,314.481384 
	C184.527802,312.503204 184.212387,311.238129 183.896988,309.973083 
	C183.710754,309.691315 183.605927,309.381927 183.729858,308.370361 
	C183.543304,306.119751 183.209412,304.543762 182.875534,302.967743 
	C182.796738,302.634491 182.717926,302.301239 182.780182,301.336395 
	C182.612427,299.802673 182.303635,298.900574 181.994843,297.998444 
	C181.873230,297.062317 181.751617,296.126190 181.769043,294.423309 
	C181.545013,292.422668 181.181961,291.188782 180.818909,289.954895 
	C180.593750,288.523376 180.368591,287.091858 180.390625,285.115784 
	C180.333359,283.682800 180.028915,282.794312 179.724457,281.905853 
	C179.575150,281.477570 179.425827,281.049255 179.467957,280.064697 
	C179.159256,278.327698 178.659088,277.147003 178.158920,275.966309 
	C177.426208,270.933685 176.693512,265.901031 176.142609,260.211670 
	C176.389374,259.372467 176.454346,259.190002 176.519318,259.007507 
z"/>
<path fill="#F9C3A4" opacity="1.000000" stroke="none" 
	d="
M211.218903,476.980072 
	C211.211960,476.791870 211.205002,476.603699 211.486328,475.870361 
	C211.313110,473.541840 210.851624,471.758514 210.390137,469.975159 
	C210.386475,469.484467 210.382797,468.993774 210.595062,467.877899 
	C210.277878,465.828827 209.744751,464.404968 209.211609,462.981079 
	C209.203064,462.798584 209.194519,462.616119 209.465240,461.906647 
	C209.238785,459.913025 208.733032,458.446472 208.227280,456.979889 
	C206.050858,440.871521 203.947266,424.752899 201.682068,408.657013 
	C197.612885,379.742493 193.446671,350.841614 189.726105,321.493958 
	C190.425491,321.034271 190.719772,321.015717 191.014038,320.997131 
	C193.687988,338.882935 196.370224,356.767548 199.033951,374.654877 
	C203.045670,401.593903 207.033508,428.536469 211.052658,455.474426 
	C213.599411,472.543762 216.196594,489.605621 218.734863,506.676239 
	C219.003082,508.480042 219.026169,510.320282 219.081482,512.571777 
	C219.000000,513.000000 218.500000,513.000000 218.213760,512.694946 
	C217.350204,511.920166 216.772888,511.450439 216.195557,510.980713 
	C216.211716,509.898010 216.227875,508.815338 216.414337,507.154388 
	C216.120895,506.044159 215.657166,505.512207 215.193451,504.980225 
	C215.160217,504.209778 215.126984,503.439331 215.402649,502.054565 
	C215.215714,500.286682 214.719879,499.133087 214.224045,497.979492 
	C214.398270,497.214996 214.572479,496.450500 214.864304,495.020752 
	C214.397873,493.230225 213.813843,492.104919 213.229828,490.979645 
	C213.217896,490.793060 213.205994,490.606506 213.481964,489.873291 
	C213.253586,487.544739 212.737335,485.762909 212.221100,483.981049 
	C212.227051,483.192780 212.233002,482.404480 212.496246,480.987976 
	C212.242004,479.233154 211.730453,478.106628 211.218903,476.980072 
z"/>
<path fill="#F8BA96" opacity="1.000000" stroke="none" 
	d="
M216.150360,511.316040 
	C216.772888,511.450439 217.350204,511.920166 217.963760,512.694946 
	C217.555557,513.000000 217.111099,513.000000 216.333328,513.000000 
	C216.035065,512.550476 216.070129,512.100891 216.150360,511.316040 
z"/>
<path fill="#EC6516" opacity="1.000000" stroke="none" 
	d="
M181.483734,235.351135 
	C180.811050,235.795151 180.159363,236.237854 179.173218,236.444183 
	C178.538971,234.117737 178.523209,231.930328 177.850769,229.967957 
	C177.299576,228.359360 175.966812,227.018616 174.993393,225.540543 
	C175.006287,225.521957 174.979248,225.485657 175.335876,225.181610 
	C175.719894,221.432007 176.120041,217.940460 175.701752,214.549896 
	C174.634567,205.899643 173.262939,197.284836 171.901337,188.673523 
	C169.992294,176.600052 167.982025,164.542587 166.027740,152.268372 
	C166.050201,151.778198 166.057098,151.497894 166.026947,150.763245 
	C164.560379,139.558136 163.127975,128.807312 162.099609,118.041748 
	C167.736969,120.403816 172.924103,122.892456 178.233551,125.084923 
	C179.703995,125.692116 181.537857,125.419220 183.204987,125.550117 
	C184.302429,125.989090 185.399887,126.428070 186.880081,127.316711 
	C187.448181,130.300919 188.707611,129.837021 190.169617,128.807648 
	C190.169617,128.807648 190.063156,128.982697 190.124893,129.293549 
	C191.647903,130.007935 193.109161,130.411484 194.570435,130.815018 
	C195.211395,130.994537 195.852371,131.174057 196.878235,131.859741 
	C199.015625,133.250381 200.730515,134.221298 202.527664,135.003036 
	C207.797043,137.295135 213.111511,139.483353 218.384811,141.766556 
	C223.395447,143.936050 228.362030,146.208374 233.396790,148.319092 
	C233.814621,148.494217 234.605209,147.780243 235.222595,147.479370 
	C235.222595,147.479370 235.690033,147.534683 235.880676,148.036774 
	C237.911880,148.960968 239.752457,149.383072 241.593018,149.805191 
	C241.917313,149.783615 242.241608,149.762024 243.013321,150.148743 
	C249.362167,154.723679 256.044495,152.518555 262.411774,152.769852 
	C262.837341,152.786636 263.318573,151.391464 263.773895,150.653015 
	C263.773895,150.653000 263.911163,150.778244 264.211731,150.873169 
	C266.485474,151.249298 268.972504,153.888214 269.987793,149.774689 
	C270.599548,149.678177 271.211273,149.581680 272.612549,149.706711 
	C276.470917,149.890259 279.539734,149.852280 282.608551,149.814301 
	C282.926147,149.738358 283.243774,149.662430 283.856750,150.107117 
	C285.284851,150.875275 286.417572,151.122818 287.465454,151.482590 
	C287.380554,151.594833 287.598724,151.418076 287.581757,151.746857 
	C289.577515,152.317703 291.590210,152.559799 293.602936,152.801880 
	C295.232788,153.490967 296.862610,154.180054 298.814819,155.410278 
	C299.853668,156.263474 300.570129,156.575500 301.286591,156.887543 
	C302.463409,157.647049 303.640228,158.406570 304.962891,159.807678 
	C306.410767,161.299057 307.712830,162.148849 309.014862,162.998642 
	C317.901733,171.354324 326.763123,179.737396 335.693817,188.045959 
	C337.863953,190.064941 340.262207,191.838699 342.747192,194.375397 
	C341.752045,198.576859 339.419586,196.691284 337.422211,196.150757 
	C332.741089,194.883926 328.075775,193.558594 323.404083,192.256958 
	C323.404083,192.256958 322.936432,192.402954 322.936432,192.402954 
	C322.936432,192.402954 322.452423,192.327225 322.006348,191.905731 
	C318.073120,191.218689 314.585938,190.953140 311.098755,190.687592 
	C308.992371,190.739929 306.885986,190.792267 304.053131,190.537689 
	C299.554382,191.514175 295.782135,192.797562 292.009857,194.080948 
	C291.542542,194.378082 291.075226,194.675217 290.055786,194.989090 
	C288.986450,195.421509 288.469238,195.837204 287.952026,196.252899 
	C287.253296,196.800903 286.554535,197.348907 285.218384,197.980988 
	C284.043701,198.599670 283.506439,199.134262 282.969147,199.668869 
	C282.539795,200.069366 282.110474,200.469864 281.087128,200.962540 
	C279.986481,201.609604 279.479828,202.164490 278.973206,202.719360 
	C278.695374,203.037445 278.417603,203.355530 277.560364,203.890976 
	C277.222778,205.103622 277.464661,206.098877 277.706543,207.094147 
	C278.314423,207.389648 278.922272,207.685165 279.839478,208.537018 
	C280.862823,209.352692 281.576904,209.612030 282.290955,209.871368 
	C282.694794,209.994614 283.098663,210.117859 283.846008,210.751923 
	C288.160645,213.160461 292.131714,215.058212 296.102814,216.955963 
	C297.988739,218.744644 299.874695,220.533310 301.881958,222.990692 
	C302.718719,224.405838 303.434174,225.152267 304.149628,225.898697 
	C304.149628,225.898697 304.036560,225.952347 304.054443,226.210724 
	C304.595673,226.990417 305.119080,227.511719 305.642456,228.033035 
	C305.642456,228.033035 305.996490,228.341507 306.027649,228.913635 
	C306.889771,230.670044 307.720703,231.854309 308.551666,233.038574 
	C309.039337,233.724014 309.527008,234.409439 310.044556,235.760178 
	C310.929993,237.627762 311.785583,238.830032 312.641144,240.032303 
	C317.614807,245.960648 322.588501,251.889008 327.825378,258.384979 
	C328.719788,259.304047 329.351013,259.655457 329.982208,260.006897 
	C330.509979,260.334839 331.037720,260.662781 331.841919,261.518799 
	C332.782593,262.348572 333.446899,262.650269 334.111176,262.951965 
	C336.209564,264.040619 338.307983,265.129272 340.805359,266.728271 
	C341.931793,267.436218 342.659241,267.633789 343.386658,267.831360 
	C343.760162,267.880768 344.133698,267.930145 344.775482,268.406647 
	C345.672546,268.964966 346.301361,269.096191 346.930145,269.227417 
	C347.404053,269.276581 347.877960,269.325775 348.798523,269.851624 
	C355.225372,272.874512 361.205505,275.420746 367.185669,277.966980 
	C368.304382,278.632935 369.423126,279.298859 370.824219,280.500183 
	C371.750031,281.351959 372.393463,281.668335 373.036896,281.984711 
	C373.650818,282.386047 374.264709,282.787384 375.018372,283.826416 
	C375.956085,284.898041 376.754089,285.331940 377.552063,285.765869 
	C380.321014,288.193909 383.089935,290.621979 385.946472,293.704224 
	C385.645386,294.966736 385.256683,295.575012 384.530579,296.088440 
	C382.440338,295.341248 380.687561,294.688904 378.934784,294.036591 
	C377.856750,293.575256 376.778748,293.113922 375.262146,292.174164 
	C371.703583,290.595612 368.583557,289.495453 365.463531,288.395294 
	C365.124817,288.352264 364.786102,288.309265 364.003143,287.837006 
	C357.404053,285.205536 351.241791,283.420959 344.983002,287.078217 
	C344.647614,287.172058 344.312256,287.265930 343.335968,287.221466 
	C341.790558,287.416931 340.886047,287.750702 339.981567,288.084473 
	C339.362091,288.203949 338.742615,288.323364 337.470642,288.274902 
	C335.922058,288.242310 335.026031,288.377655 334.129974,288.513000 
	C332.657837,288.446808 331.185699,288.380615 329.142975,287.894196 
	C324.336151,286.009064 320.099884,284.544189 315.863617,283.079346 
	C315.863617,283.079346 315.421326,282.958832 315.175385,282.492065 
	C313.620544,281.349701 312.311646,280.674164 311.002747,279.998596 
	C310.503052,279.673401 310.003326,279.348175 309.233154,278.489777 
	C307.955139,277.315399 306.947571,276.674225 305.940033,276.033051 
	C299.163879,269.693298 292.387695,263.353546 285.276367,256.486633 
	C284.268311,255.654358 283.595367,255.349197 282.922455,255.044037 
	C282.149902,254.657852 281.377350,254.271683 280.251953,253.381836 
	C279.161865,252.651001 278.424591,252.423828 277.687317,252.196655 
	C277.029388,251.968521 276.371490,251.740402 275.275024,251.089066 
	C274.156494,250.521423 273.476501,250.376984 272.796478,250.232544 
	C272.796478,250.232559 272.812439,250.147156 272.822510,249.774399 
	C271.202271,248.949600 269.571930,248.497559 267.492249,248.035919 
	C263.694519,248.354263 260.346130,248.682220 256.997711,249.010178 
	C255.549301,249.240738 254.100891,249.471298 252.106049,249.482773 
	C251.030319,249.189941 250.501007,249.116180 249.687042,248.742035 
	C244.611191,248.642029 239.820007,248.842422 234.592743,249.052094 
	C233.589371,249.180237 233.022110,249.299133 232.454849,249.418030 
	C231.523163,249.345352 230.591492,249.272675 229.169464,248.842651 
	C227.811005,248.547043 226.942886,248.608795 226.074783,248.670547 
	C225.318207,248.591293 224.561615,248.512054 223.269257,247.995728 
	C221.660309,247.487610 220.587112,247.416550 219.513931,247.345505 
	C218.873337,247.296173 218.232742,247.246841 217.084259,246.807892 
	C215.918106,246.366821 215.259857,246.315369 214.601608,246.263901 
	C214.234985,246.233185 213.868378,246.202469 213.021606,245.785873 
	C205.660614,242.952576 198.779770,240.505173 191.898926,238.057755 
	C190.833374,237.565826 189.767807,237.073898 188.404846,236.175156 
	C188.022964,235.535431 187.973831,235.295303 188.096268,234.984665 
	C188.138962,234.960892 188.045456,235.000397 187.624146,235.022430 
	C186.859985,235.005707 186.423630,235.006409 185.987259,235.007111 
	C185.542587,234.850357 185.097931,234.693588 184.226868,234.031830 
	C183.042999,234.122391 182.285522,234.717941 181.528046,235.313477 
	C181.528030,235.313477 181.504715,235.349823 181.483734,235.351135 
z"/>
<path fill="#ED6920" opacity="1.000000" stroke="none" 
	d="
M174.979248,225.485657 
	C174.979248,225.485657 175.006287,225.521957 174.991043,226.006516 
	C175.990204,233.978775 177.004608,241.466461 178.019012,248.954163 
	C177.540405,250.277695 177.061798,251.601242 175.837311,252.990082 
	C174.560593,255.435181 174.029770,257.814972 173.498947,260.194763 
	C173.398590,260.902618 173.298248,261.610474 172.744537,262.600708 
	C171.821823,262.181335 171.352493,261.479584 170.872589,260.353577 
	C171.411118,254.149796 171.960205,248.370239 172.509293,242.590668 
	C172.115021,242.488998 171.720749,242.387314 171.326477,242.285629 
	C170.112106,244.824554 168.897751,247.363480 167.683395,249.902420 
	C167.156754,249.756439 166.630096,249.610458 166.103455,249.464478 
	C167.286713,244.935532 168.469955,240.406586 169.653214,235.877640 
	C170.087555,234.815170 170.521896,233.752716 171.242889,232.084961 
	C171.341904,229.654785 171.154282,227.829895 170.966675,226.005020 
	C170.936554,225.578369 170.906418,225.151718 170.887939,224.037323 
	C170.562790,221.905975 170.225967,220.462387 169.889130,219.018799 
	C169.856308,218.291473 169.823486,217.564163 169.792938,216.124786 
	C169.503067,214.279541 169.210922,213.146332 168.918793,212.013138 
	C168.860062,211.289810 168.801331,210.566467 168.763123,209.139267 
	C168.490952,207.295380 168.198242,206.155350 167.905533,205.015335 
	C167.879288,204.286530 167.853027,203.557724 167.837860,202.123032 
	C167.530319,200.284027 167.211731,199.150909 166.893127,198.017792 
	C166.859604,197.289978 166.826080,196.562180 166.794083,195.070953 
	C166.193024,190.872284 165.590439,187.437012 164.987869,184.001740 
	C164.943497,183.274811 164.899139,182.547882 164.866882,181.114105 
	C164.580017,179.272369 164.281021,178.137466 163.982025,177.002563 
	C163.888977,175.968948 163.795929,174.935349 163.725739,173.202789 
	C163.494751,171.669830 163.240891,170.835831 162.987061,170.001831 
	C162.819641,168.651657 162.652222,167.301468 162.500061,165.207062 
	C162.027664,162.305862 161.539993,160.148911 161.052338,157.991959 
	C161.010406,157.262527 160.968475,156.533096 160.930893,155.071304 
	C160.606430,152.895264 160.277603,151.451584 159.948792,150.007904 
	C159.866776,148.973495 159.784744,147.939087 159.710464,146.198242 
	C159.441071,144.667145 159.163925,143.842484 158.886765,143.017838 
	C157.537048,139.000565 156.187347,134.983307 154.420319,130.684479 
	C153.654907,129.600616 153.306793,128.798325 152.944366,127.592056 
	C153.053009,126.118240 153.175949,125.048393 153.659988,124.045502 
	C155.687927,124.633026 157.386765,125.977211 158.039398,122.734787 
	C160.587708,110.074257 161.057465,97.257195 161.279541,84.410744 
	C161.887558,86.825066 162.947647,89.226540 163.016647,91.656174 
	C163.204239,98.262642 162.811218,104.884987 162.973877,111.493027 
	C163.056778,114.861183 164.870590,117.172485 168.300186,118.495605 
	C173.240631,120.401581 177.972977,122.846962 182.999557,125.306137 
	C181.537857,125.419220 179.703995,125.692116 178.233551,125.084923 
	C172.924103,122.892456 167.736969,120.403816 161.896332,117.825378 
	C160.936829,117.415894 160.584656,117.208031 160.232483,117.000168 
	C160.138123,117.294411 159.931351,117.602493 159.965637,117.880898 
	C161.268707,128.462341 162.561768,139.045410 163.997910,149.609024 
	C164.081955,150.227249 165.346130,150.685043 166.061111,151.217514 
	C166.057098,151.497894 166.050201,151.778198 165.687958,152.582184 
	C165.300568,156.067902 164.866806,159.088806 165.294556,161.982376 
	C168.425797,183.164474 171.729767,204.321045 174.979248,225.485657 
z"/>
<path fill="#EC6516" opacity="1.000000" stroke="none" 
	d="
M161.272217,84.269814 
	C161.057465,97.257195 160.587708,110.074257 158.039398,122.734787 
	C157.386765,125.977211 155.687927,124.633026 153.567230,123.958542 
	C153.113373,123.804619 153.154266,123.555183 153.105896,123.160095 
	C153.822250,118.916588 154.468811,115.039627 155.388931,111.228722 
	C156.131226,108.154297 156.699524,105.337898 152.803146,104.013260 
	C152.396530,103.298248 151.989914,102.583237 151.830353,101.395309 
	C151.368057,99.927162 150.658737,98.931931 149.949417,97.936699 
	C149.949417,97.936699 149.993423,97.750137 150.230255,97.350235 
	C149.069992,91.774681 147.345718,86.600708 150.390366,81.391876 
	C150.407135,81.363220 149.898636,81.027534 149.635422,80.835228 
	C149.635422,80.835228 149.680756,80.351189 150.210144,80.136543 
	C152.286133,79.231728 153.832748,78.541550 155.379364,77.851379 
	C155.673569,77.845070 155.898102,77.967056 156.079819,78.782593 
	C157.742584,80.898193 159.378479,82.448524 161.014374,83.998856 
	C161.014374,83.998856 161.264893,84.128883 161.272217,84.269814 
z"/>
<path fill="#EE712A" opacity="1.000000" stroke="none" 
	d="
M323.661926,192.520416 
	C328.075775,193.558594 332.741089,194.883926 337.422211,196.150757 
	C339.419586,196.691284 341.752045,198.576859 342.951324,194.654175 
	C346.569336,196.516129 350.113953,198.855881 353.793304,200.960022 
	C360.787109,204.959671 368.324951,206.506409 376.337646,205.420944 
	C379.114075,205.044830 380.585114,206.064163 381.392914,208.828995 
	C382.779846,213.575867 384.526825,218.217545 386.223206,223.198837 
	C385.544434,223.112701 384.934723,223.215530 384.761719,222.987335 
	C378.669373,214.950806 369.977509,210.883881 360.949768,207.330414 
	C348.609711,202.473206 336.263428,197.631958 323.661926,192.520416 
z"/>
<path fill="#ED6E25" opacity="1.000000" stroke="none" 
	d="
M412.316193,315.798553 
	C415.491638,316.662170 418.624084,317.933105 421.854706,318.274261 
	C425.052246,318.611969 428.348877,318.011536 432.405579,317.775879 
	C430.852692,323.499084 429.469360,328.597382 427.902679,334.371368 
	C421.975952,328.442139 416.616150,323.080078 411.240234,317.141663 
	C411.588165,316.309723 411.952179,316.054138 412.316193,315.798553 
z"/>
<path fill="#EC6516" opacity="1.000000" stroke="none" 
	d="
M152.958679,127.996017 
	C153.306793,128.798325 153.654907,129.600616 154.022766,130.753555 
	C153.990387,134.430634 153.938248,137.757095 153.724396,141.875977 
	C153.494095,144.817245 153.425491,146.966080 153.356873,149.114899 
	C153.287338,149.539062 153.217819,149.963242 152.948242,151.035065 
	C152.633881,156.633835 152.519592,161.584930 152.405289,166.536026 
	C152.632889,167.129166 152.860474,167.722305 153.208908,168.980026 
	C155.982605,174.548218 152.697052,176.456055 149.028549,178.170700 
	C147.933197,178.205521 146.837860,178.240341 145.268906,177.889496 
	C145.812775,173.981934 146.830246,170.460068 147.847717,166.938187 
	C148.179916,166.163467 148.512115,165.388763 149.079666,163.972229 
	C150.529572,151.552277 151.744125,139.774155 152.958679,127.996017 
z"/>
<path fill="#FAD2BB" opacity="1.000000" stroke="none" 
	d="
M152.944366,127.592056 
	C151.744125,139.774155 150.529572,151.552277 149.080231,163.653641 
	C148.625351,159.952011 148.405289,155.927170 148.194717,152.076202 
	C146.136383,151.520187 143.447525,151.238129 141.321213,149.994339 
	C140.504318,149.516495 140.969421,146.846985 141.239029,145.485809 
	C142.678772,147.324570 143.729828,148.853653 144.780899,150.382736 
	C145.856079,149.255051 146.931274,148.127380 148.126801,146.545593 
	C148.262222,142.301758 148.041473,138.492386 148.355453,134.727600 
	C148.704025,130.548370 148.701736,126.044632 153.154266,123.555183 
	C153.154266,123.555183 153.113373,123.804619 153.206116,123.891586 
	C153.175949,125.048393 153.053009,126.118240 152.944366,127.592056 
z"/>
<path fill="#EE742E" opacity="1.000000" stroke="none" 
	d="
M170.883179,260.777802 
	C171.352493,261.479584 171.821823,262.181335 172.628143,262.939453 
	C172.977203,264.710876 172.989273,266.425964 172.777344,268.606812 
	C172.553329,269.072571 172.154388,269.290436 172.083679,268.943359 
	C171.342102,268.064178 170.671204,267.532104 170.000320,267.000000 
	C169.061356,266.985718 168.058441,266.750885 167.196075,267.000824 
	C165.078796,267.614532 163.026260,268.451569 159.625748,269.673950 
	C161.138031,263.107758 162.262054,258.227386 164.056732,253.132721 
	C165.847580,254.528763 166.912552,256.181519 168.106750,257.734955 
	C168.940613,258.819672 169.951416,259.768341 170.883179,260.777802 
z"/>
<path fill="#ED6920" opacity="1.000000" stroke="none" 
	d="
M153.105896,123.160095 
	C148.701736,126.044632 148.704025,130.548370 148.355453,134.727600 
	C148.041473,138.492386 148.262222,142.301758 147.736359,146.455048 
	C146.819885,145.364395 146.451172,143.898529 145.998489,142.459091 
	C145.501526,140.878845 144.927216,139.322922 144.428391,137.429108 
	C144.406570,136.675842 144.342987,136.249878 144.279388,135.823929 
	C144.440369,135.423325 144.601334,135.022720 145.059326,134.122192 
	C145.431229,133.035553 145.506149,132.448822 145.581055,131.862091 
	C148.024170,125.260986 150.669418,118.724030 152.796326,112.022568 
	C153.502243,109.798363 152.876068,107.151382 152.831024,104.355469 
	C156.699524,105.337898 156.131226,108.154297 155.388931,111.228722 
	C154.468811,115.039627 153.822250,118.916588 153.105896,123.160095 
z"/>
<path fill="#EE7029" opacity="1.000000" stroke="none" 
	d="
M169.885818,267.389282 
	C170.671204,267.532104 171.342102,268.064178 172.097656,269.308197 
	C172.281677,270.739899 172.381027,271.459717 172.480377,272.179504 
	C172.300903,274.492828 172.121429,276.806183 171.738953,279.794067 
	C171.655685,281.649139 171.775421,282.829712 171.895172,284.010254 
	C172.726959,287.049255 173.558731,290.088257 173.656433,293.138855 
	C171.611389,293.776459 170.300446,294.402466 168.989517,295.028473 
	C167.937439,295.154572 166.885345,295.280640 165.432022,294.899658 
	C165.304092,292.771423 165.577393,291.150269 165.850693,289.529114 
	C166.332947,288.194794 166.815216,286.860443 167.811447,285.115265 
	C168.478607,283.922821 168.631790,283.141235 168.784988,282.359650 
	C168.736588,281.773804 168.688171,281.187927 169.078354,280.046722 
	C169.610153,277.447083 169.703369,275.402832 169.796585,273.358551 
	C169.788162,271.498566 169.779739,269.638550 169.885818,267.389282 
z"/>
<path fill="#FAD2BB" opacity="1.000000" stroke="none" 
	d="
M170.872589,260.353577 
	C169.951416,259.768341 168.940613,258.819672 168.106750,257.734955 
	C166.912552,256.181519 165.847580,254.528763 164.340881,252.882462 
	C165.639923,247.268555 167.325516,241.690613 169.332153,235.995148 
	C168.469955,240.406586 167.286713,244.935532 166.103455,249.464478 
	C166.630096,249.610458 167.156754,249.756439 167.683395,249.902420 
	C168.897751,247.363480 170.112106,244.824554 171.326477,242.285629 
	C171.720749,242.387314 172.115021,242.488998 172.509293,242.590668 
	C171.960205,248.370239 171.411118,254.149796 170.872589,260.353577 
z"/>
<path fill="#ED6920" opacity="1.000000" stroke="none" 
	d="
M234.984299,147.263474 
	C234.605209,147.780243 233.814621,148.494217 233.396790,148.319092 
	C228.362030,146.208374 223.395447,143.936050 218.384811,141.766556 
	C213.111511,139.483353 207.797043,137.295135 202.527664,135.003036 
	C200.730515,134.221298 199.015625,133.250381 197.123795,132.096436 
	C209.571625,136.900497 222.158813,141.974045 234.984299,147.263474 
z"/>
<path fill="#F18547" opacity="1.000000" stroke="none" 
	d="
M412.157532,315.504700 
	C411.952179,316.054138 411.588165,316.309723 411.063171,316.860229 
	C406.936279,314.039124 402.970276,310.923126 399.162781,307.340912 
	C399.584290,306.527313 399.847382,306.179871 400.110474,305.832458 
	C404.073273,308.958588 408.036072,312.084717 412.157532,315.504700 
z"/>
<path fill="#ED6920" opacity="1.000000" stroke="none" 
	d="
M263.408081,150.581802 
	C263.318573,151.391464 262.837341,152.786636 262.411774,152.769852 
	C256.044495,152.518555 249.362167,154.723679 243.229538,150.275818 
	C249.679657,150.166595 256.360992,150.338593 263.408081,150.581802 
z"/>
<path fill="#EE712A" opacity="1.000000" stroke="none" 
	d="
M384.868011,296.183319 
	C385.256683,295.575012 385.645386,294.966736 386.103333,293.988159 
	C390.229858,297.076508 394.287109,300.535126 398.344330,303.993744 
	C397.937653,304.550079 397.530975,305.106415 397.124329,305.662750 
	C393.287018,303.150909 389.449738,300.639038 385.322449,297.656372 
	C384.977661,296.851440 384.922852,296.517395 384.868011,296.183319 
z"/>
<path fill="#EC6516" opacity="1.000000" stroke="none" 
	d="
M144.386612,137.756409 
	C144.927216,139.322922 145.501526,140.878845 145.998489,142.459091 
	C146.451172,143.898529 146.819885,145.364395 147.616028,146.909149 
	C146.931274,148.127380 145.856079,149.255051 144.780899,150.382736 
	C143.729828,148.853653 142.678772,147.324570 141.556641,145.372345 
	C141.604752,144.517899 141.723938,144.086594 142.120270,143.115234 
	C143.060501,140.968918 143.723557,139.362671 144.386612,137.756409 
z"/>
<path fill="#ED6920" opacity="1.000000" stroke="none" 
	d="
M149.380814,81.035172 
	C149.898636,81.027534 150.407135,81.363220 150.390366,81.391876 
	C147.345718,86.600708 149.069992,91.774681 150.159180,97.285934 
	C144.832275,92.370781 146.344711,86.831024 149.380814,81.035172 
z"/>
<path fill="#F18547" opacity="1.000000" stroke="none" 
	d="
M192.037338,238.362900 
	C198.779770,240.505173 205.660614,242.952576 212.765503,245.679062 
	C206.051605,243.528107 199.113678,241.098068 192.037338,238.362900 
z"/>
<path fill="#F18547" opacity="1.000000" stroke="none" 
	d="
M345.314575,287.205566 
	C351.241791,283.420959 357.404053,285.205536 363.780212,287.706726 
	C357.883057,287.781433 351.764618,287.557159 345.314575,287.205566 
z"/>
<path fill="#EE712A" opacity="1.000000" stroke="none" 
	d="
M367.027588,277.669312 
	C361.205505,275.420746 355.225372,272.874512 349.101288,270.046997 
	C354.928070,272.301025 360.898773,274.836334 367.027588,277.669312 
z"/>
<path fill="#FAD2BB" opacity="1.000000" stroke="none" 
	d="
M152.582153,166.097290 
	C152.519592,161.584930 152.633881,156.633835 152.976685,151.357285 
	C153.056473,155.907394 152.907745,160.782974 152.582153,166.097290 
z"/>
<path fill="#F18547" opacity="1.000000" stroke="none" 
	d="
M316.014709,283.380035 
	C320.099884,284.544189 324.336151,286.009064 328.793579,287.766479 
	C324.731750,286.599609 320.448761,285.140198 316.014709,283.380035 
z"/>
<path fill="#ED6C26" opacity="1.000000" stroke="none" 
	d="
M235.028839,249.042831 
	C239.820007,248.842422 244.611191,248.642029 249.358459,248.748322 
	C248.545868,249.357880 247.777191,249.660782 247.008530,249.963684 
	C244.297745,250.007187 241.586960,250.050705 238.217941,249.773102 
	C236.716080,249.315613 235.872467,249.179230 235.028839,249.042831 
z"/>
<path fill="#EE712A" opacity="1.000000" stroke="none" 
	d="
M295.960144,216.656296 
	C292.131714,215.058212 288.160645,213.160461 284.071045,210.979065 
	C287.907501,212.582489 291.862518,214.469559 295.960144,216.656296 
z"/>
<path fill="#FAD2BB" opacity="1.000000" stroke="none" 
	d="
M149.250473,178.404053 
	C152.697052,176.456055 155.982605,174.548218 153.366302,169.256226 
	C157.613159,174.160858 156.510071,176.902695 149.250473,178.404053 
z"/>
<path fill="#EE712A" opacity="1.000000" stroke="none" 
	d="
M292.408264,194.045715 
	C295.782135,192.797562 299.554382,191.514175 303.608063,190.455002 
	C300.195190,191.789642 296.500916,192.900070 292.408264,194.045715 
z"/>
<path fill="#FAD2BB" opacity="1.000000" stroke="none" 
	d="
M147.507935,167.024399 
	C146.830246,170.460068 145.812775,173.981934 144.857788,177.914459 
	C144.387070,177.777802 143.294479,177.033600 143.407120,176.713684 
	C144.547943,173.472931 145.885666,170.301483 147.507935,167.024399 
z"/>
<path fill="#F18547" opacity="1.000000" stroke="none" 
	d="
M257.343994,249.182327 
	C260.346130,248.682220 263.694519,248.354263 267.521790,248.288193 
	C268.005035,248.719635 268.009491,248.889160 268.013947,249.058716 
	C264.572723,249.157303 261.131500,249.255890 257.343994,249.182327 
z"/>
<path fill="#F18547" opacity="1.000000" stroke="none" 
	d="
M194.162811,318.680908 
	C193.361649,315.491608 192.712555,311.979736 192.147217,308.015564 
	C192.925613,311.161591 193.620255,314.759949 194.162811,318.680908 
z"/>
<path fill="#F18547" opacity="1.000000" stroke="none" 
	d="
M213.301758,447.707550 
	C212.464264,444.497009 211.779648,440.952972 211.181030,436.958130 
	C211.996231,440.129578 212.725449,443.751801 213.301758,447.707550 
z"/>
<path fill="#F18547" opacity="1.000000" stroke="none" 
	d="
M185.783066,324.305939 
	C186.591370,327.529724 187.239532,331.074249 187.782745,335.075134 
	C186.992828,331.896545 186.307877,328.261597 185.783066,324.305939 
z"/>
<path fill="#EE712A" opacity="1.000000" stroke="none" 
	d="
M311.431396,190.864410 
	C314.585938,190.953140 318.073120,191.218689 321.794556,191.783127 
	C318.607239,191.735077 315.185638,191.388138 311.431396,190.864410 
z"/>
<path fill="#FAD2BB" opacity="1.000000" stroke="none" 
	d="
M164.719879,184.268738 
	C165.590439,187.437012 166.193024,190.872284 166.684296,194.722626 
	C165.865967,191.603714 165.158920,188.069733 164.719879,184.268738 
z"/>
<path fill="#ED6920" opacity="1.000000" stroke="none" 
	d="
M287.550323,151.370346 
	C286.417572,151.122818 285.284851,150.875275 284.078949,150.232544 
	C287.041504,150.649506 290.077209,151.461624 293.357910,152.537827 
	C291.590210,152.559799 289.577515,152.317703 287.600952,151.769348 
	C287.637146,151.463058 287.550323,151.370346 287.550323,151.370346 
z"/>
<path fill="#F18547" opacity="1.000000" stroke="none" 
	d="
M188.742126,344.294739 
	C189.535706,347.223480 190.176956,350.473938 190.683746,354.171265 
	C189.896118,351.284241 189.242950,347.950348 188.742126,344.294739 
z"/>
<path fill="#F18547" opacity="1.000000" stroke="none" 
	d="
M191.164673,298.684631 
	C190.395126,295.772858 189.770248,292.540039 189.253479,288.857666 
	C190.010849,291.726654 190.660080,295.045105 191.164673,298.684631 
z"/>
<path fill="#F9CBB0" opacity="1.000000" stroke="none" 
	d="
M173.806412,260.137329 
	C174.029770,257.814972 174.560593,255.435181 175.463684,253.062378 
	C176.016083,254.767822 176.196243,256.466278 176.447845,258.586121 
	C176.454346,259.190002 176.389374,259.372467 176.146790,259.784790 
	C175.350739,260.036438 174.732300,260.058167 173.806412,260.137329 
z"/>
<path fill="#ED6920" opacity="1.000000" stroke="none" 
	d="
M282.323914,149.556244 
	C279.539734,149.852280 276.470917,149.890259 272.887268,149.864624 
	C275.594696,149.633408 278.817017,149.465790 282.323914,149.556244 
z"/>
<path fill="#F18547" opacity="1.000000" stroke="none" 
	d="
M216.171082,466.698608 
	C215.428314,464.226440 214.831299,461.445496 214.446503,458.383972 
	C215.211411,460.865509 215.764130,463.627686 216.171082,466.698608 
z"/>
<path fill="#F18547" opacity="1.000000" stroke="none" 
	d="
M365.697540,288.652100 
	C368.583557,289.495453 371.703583,290.595612 374.972931,291.971283 
	C372.058685,291.134186 368.995117,290.021576 365.697540,288.652100 
z"/>
<path fill="#F18547" opacity="1.000000" stroke="none" 
	d="
M206.782104,466.297882 
	C207.549225,468.910736 208.168915,471.839996 208.649170,475.202515 
	C207.884720,472.628632 207.259689,469.621460 206.782104,466.297882 
z"/>
<path fill="#ED6920" opacity="1.000000" stroke="none" 
	d="
M155.245972,77.542198 
	C153.832748,78.541550 152.286133,79.231728 150.378540,79.961266 
	C150.694168,78.405441 151.370758,76.810242 152.233719,74.775597 
	C153.485580,75.844200 154.299072,76.538612 155.245972,77.542198 
z"/>
<path fill="#F18547" opacity="1.000000" stroke="none" 
	d="
M210.829758,494.295532 
	C211.539810,496.468018 212.112869,498.944611 212.458603,501.678833 
	C211.718430,499.490875 211.205597,497.045258 210.829758,494.295532 
z"/>
<path fill="#ED6920" opacity="1.000000" stroke="none" 
	d="
M269.657318,149.690186 
	C268.972504,153.888214 266.485474,151.249298 264.124329,150.841660 
	C265.599854,150.345383 267.463348,149.975525 269.657318,149.690186 
z"/>
<path fill="#FAD2BB" opacity="1.000000" stroke="none" 
	d="
M153.688293,148.979355 
	C153.425491,146.966080 153.494095,144.817245 153.756393,142.330994 
	C153.973282,144.276993 153.996490,146.560394 153.688293,148.979355 
z"/>
<path fill="#FAD2BB" opacity="1.000000" stroke="none" 
	d="
M144.428391,137.429108 
	C143.723557,139.362671 143.060501,140.968918 142.143692,142.779587 
	C142.510025,140.703690 143.130096,138.423386 144.014786,135.983505 
	C144.342987,136.249878 144.406570,136.675842 144.428391,137.429108 
z"/>
<path fill="#FAD2BB" opacity="1.000000" stroke="none" 
	d="
M160.793762,158.223419 
	C161.539993,160.148911 162.027664,162.305862 162.377319,164.818863 
	C161.671280,162.934891 161.103226,160.694885 160.793762,158.223419 
z"/>
<path fill="#F18547" opacity="1.000000" stroke="none" 
	d="
M220.067703,492.699249 
	C219.396301,490.841522 218.862198,488.701172 218.551422,486.312012 
	C219.251511,488.181000 219.728256,490.298798 220.067703,492.699249 
z"/>
<path fill="#ED6920" opacity="1.000000" stroke="none" 
	d="
M160.955383,83.668015 
	C159.378479,82.448524 157.742584,80.898193 156.128128,78.975906 
	C157.731842,80.181694 159.314117,81.759438 160.955383,83.668015 
z"/>
<path fill="#FAD2BB" opacity="1.000000" stroke="none" 
	d="
M170.718246,226.267212 
	C171.154282,227.829895 171.341904,229.654785 171.285095,231.742615 
	C170.850372,230.180176 170.660095,228.354782 170.718246,226.267212 
z"/>
<path fill="#F18547" opacity="1.000000" stroke="none" 
	d="
M384.530579,296.088440 
	C384.922852,296.517395 384.977661,296.851440 385.043091,297.440247 
	C383.102051,296.672638 381.150391,295.650269 379.066742,294.332275 
	C380.687561,294.688904 382.440338,295.341248 384.530579,296.088440 
z"/>
<path fill="#EE742E" opacity="1.000000" stroke="none" 
	d="
M169.540558,273.609802 
	C169.703369,275.402832 169.610153,277.447083 169.198807,279.771515 
	C169.015305,277.988129 169.149918,275.924622 169.540558,273.609802 
z"/>
<path fill="#EE742E" opacity="1.000000" stroke="none" 
	d="
M165.599548,289.750549 
	C165.577393,291.150269 165.304092,292.771423 165.042236,294.805939 
	C161.904297,293.287781 165.336670,291.725922 165.599548,289.750549 
z"/>
<path fill="#F18547" opacity="1.000000" stroke="none" 
	d="
M247.299698,250.104828 
	C247.777191,249.660782 248.545868,249.357880 249.643127,249.048706 
	C250.501007,249.116180 251.030319,249.189941 251.741409,249.461746 
	C250.479095,249.855179 249.034973,250.050568 247.299698,250.104828 
z"/>
<path fill="#FAD2BB" opacity="1.000000" stroke="none" 
	d="
M159.701447,150.247192 
	C160.277603,151.451584 160.606430,152.895264 160.838333,154.717285 
	C160.312317,153.559235 159.883209,152.022858 159.701447,150.247192 
z"/>
<path fill="#F18547" opacity="1.000000" stroke="none" 
	d="
M202.544983,439.272156 
	C203.076065,440.512848 203.482895,442.114807 203.787949,444.117523 
	C203.264374,442.890015 202.842560,441.261719 202.544983,439.272156 
z"/>
<path fill="#F18547" opacity="1.000000" stroke="none" 
	d="
M210.219543,427.734009 
	C209.728134,426.515747 209.377350,425.009552 209.100281,423.089813 
	C209.569382,424.266205 209.964783,425.856171 210.219543,427.734009 
z"/>
<path fill="#F18547" opacity="1.000000" stroke="none" 
	d="
M184.713379,317.251404 
	C185.232452,318.495148 185.595917,320.023712 185.867538,321.972656 
	C185.369720,320.774078 184.963745,319.155151 184.713379,317.251404 
z"/>
<path fill="#F18547" opacity="1.000000" stroke="none" 
	d="
M182.718079,303.253143 
	C183.209412,304.543762 183.543304,306.119751 183.763794,308.125519 
	C183.287140,306.883026 182.923874,305.210785 182.718079,303.253143 
z"/>
<path fill="#ED6920" opacity="1.000000" stroke="none" 
	d="
M308.891510,162.696320 
	C307.712830,162.148849 306.410767,161.299057 305.114746,160.070557 
	C306.336548,160.592545 307.552338,161.493271 308.891510,162.696320 
z"/>
<path fill="#F18547" opacity="1.000000" stroke="none" 
	d="
M234.592743,249.052094 
	C235.872467,249.179230 236.716080,249.315613 237.771851,249.696289 
	C236.296738,249.918686 234.609467,249.896774 232.688538,249.646439 
	C233.022110,249.299133 233.589371,249.180237 234.592743,249.052094 
z"/>
<path fill="#FAD2BB" opacity="1.000000" stroke="none" 
	d="
M169.634796,219.248932 
	C170.225967,220.462387 170.562790,221.905975 170.794525,223.729614 
	C170.253098,222.566147 169.816772,221.022598 169.634796,219.248932 
z"/>
<path fill="#ED6920" opacity="1.000000" stroke="none" 
	d="
M149.874237,98.139603 
	C150.658737,98.931931 151.368057,99.927162 151.747406,101.095131 
	C150.877945,100.292755 150.338486,99.317635 149.874237,98.139603 
z"/>
<path fill="#ED6920" opacity="1.000000" stroke="none" 
	d="
M241.333069,149.534576 
	C239.752457,149.383072 237.911880,148.960968 236.038956,148.210938 
	C237.695435,148.343338 239.384262,148.803650 241.333069,149.534576 
z"/>
<path fill="#F18547" opacity="1.000000" stroke="none" 
	d="
M218.288940,481.746338 
	C217.812149,480.768768 217.479706,479.464172 217.252960,477.789185 
	C217.716858,478.752319 218.075073,480.085785 218.288940,481.746338 
z"/>
<path fill="#F18547" opacity="1.000000" stroke="none" 
	d="
M183.744934,310.239380 
	C184.212387,311.238129 184.527802,312.503204 184.717697,314.180939 
	C184.259094,313.230988 183.925995,311.868317 183.744934,310.239380 
z"/>
<path fill="#F18547" opacity="1.000000" stroke="none" 
	d="
M217.215485,473.757324 
	C216.734253,472.801575 216.400635,471.584137 216.153076,469.962036 
	C216.613785,470.870117 216.988449,472.182892 217.215485,473.757324 
z"/>
<path fill="#F18547" opacity="1.000000" stroke="none" 
	d="
M192.148514,305.738342 
	C191.695633,304.776550 191.388000,303.552155 191.170135,301.925507 
	C191.604507,302.840729 191.949127,304.158234 192.148514,305.738342 
z"/>
<path fill="#F18547" opacity="1.000000" stroke="none" 
	d="
M196.377625,333.746948 
	C195.904510,332.914917 195.559006,331.749664 195.399414,330.357788 
	C195.891953,331.225372 196.198608,332.319550 196.377625,333.746948 
z"/>
<path fill="#EE742E" opacity="1.000000" stroke="none" 
	d="
M169.248352,295.124207 
	C170.300446,294.402466 171.611389,293.776459 173.310699,293.214111 
	C172.301788,293.925171 170.904495,294.572571 169.248352,295.124207 
z"/>
<path fill="#F18547" opacity="1.000000" stroke="none" 
	d="
M180.676178,290.225342 
	C181.181961,291.188782 181.545013,292.422668 181.810516,294.070129 
	C181.319794,293.154388 180.926620,291.825104 180.676178,290.225342 
z"/>
<path fill="#F18547" opacity="1.000000" stroke="none" 
	d="
M209.843414,487.255920 
	C210.317093,488.201996 210.631470,489.403381 210.859146,490.999695 
	C210.409668,490.100128 210.046875,488.805664 209.843414,487.255920 
z"/>
<path fill="#EE712A" opacity="1.000000" stroke="none" 
	d="
M308.552795,232.719818 
	C307.720703,231.854309 306.889771,230.670044 306.073059,229.143982 
	C306.909454,230.001816 307.731689,231.201431 308.552795,232.719818 
z"/>
<path fill="#F18547" opacity="1.000000" stroke="none" 
	d="
M205.739426,459.233032 
	C206.234070,460.211121 206.569595,461.448578 206.800049,463.094879 
	C206.323425,462.166626 205.951874,460.829529 205.739426,459.233032 
z"/>
<path fill="#F18547" opacity="1.000000" stroke="none" 
	d="
M195.191681,325.751709 
	C194.714569,324.789001 194.396072,323.568451 194.163300,321.944092 
	C194.616104,322.858154 194.983185,324.176025 195.191681,325.751709 
z"/>
<path fill="#F18547" opacity="1.000000" stroke="none" 
	d="
M198.186768,345.746368 
	C197.715805,344.808411 197.386398,343.604126 197.134796,342.000977 
	C197.584534,342.894775 197.956436,344.187378 198.186768,345.746368 
z"/>
<path fill="#ED6920" opacity="1.000000" stroke="none" 
	d="
M194.333221,130.543701 
	C193.109161,130.411484 191.647903,130.007935 190.160858,129.197632 
	C191.455399,129.284714 192.775711,129.778549 194.333221,130.543701 
z"/>
<path fill="#F18547" opacity="1.000000" stroke="none" 
	d="
M199.223297,352.759979 
	C198.741653,351.800354 198.406067,350.578735 198.159119,348.950836 
	C198.621628,349.862366 198.995499,351.180176 199.223297,352.759979 
z"/>
<path fill="#F18547" opacity="1.000000" stroke="none" 
	d="
M190.734344,358.229309 
	C191.230240,359.213654 191.561951,360.453827 191.788910,362.103821 
	C191.312836,361.170776 190.941483,359.827972 190.734344,358.229309 
z"/>
<path fill="#F18547" opacity="1.000000" stroke="none" 
	d="
M192.863617,372.269714 
	C193.298355,373.227173 193.600113,374.455261 193.808273,376.083984 
	C193.386658,375.169861 193.058655,373.855103 192.863617,372.269714 
z"/>
<path fill="#F18547" opacity="1.000000" stroke="none" 
	d="
M193.795776,378.245789 
	C194.211487,379.134216 194.475861,380.281830 194.529099,381.669128 
	C194.093460,380.774200 193.868942,379.639557 193.795776,378.245789 
z"/>
<path fill="#F18547" opacity="1.000000" stroke="none" 
	d="
M194.665009,385.244385 
	C195.142868,386.214539 195.495972,387.518768 195.738342,389.193329 
	C195.265152,388.235229 194.902695,386.906860 194.665009,385.244385 
z"/>
<path fill="#F18547" opacity="1.000000" stroke="none" 
	d="
M206.128021,399.735596 
	C205.666565,398.832153 205.338928,397.665680 205.079102,396.113983 
	C205.518555,396.976715 205.890198,398.224640 206.128021,399.735596 
z"/>
<path fill="#F18547" opacity="1.000000" stroke="none" 
	d="
M197.610077,405.239502 
	C198.052826,406.102814 198.364243,407.298065 198.467651,408.710632 
	C197.999359,407.809113 197.739044,406.690247 197.610077,405.239502 
z"/>
<path fill="#F18547" opacity="1.000000" stroke="none" 
	d="
M199.740845,420.239136 
	C200.230164,421.193512 200.579803,422.417206 200.832031,424.047485 
	C200.356796,423.138855 199.978989,421.823669 199.740845,420.239136 
z"/>
<path fill="#F18547" opacity="1.000000" stroke="none" 
	d="
M211.237213,434.758911 
	C210.761124,433.783325 210.431198,432.541534 210.197556,430.888367 
	C210.657013,431.815582 211.020187,433.154144 211.237213,434.758911 
z"/>
<path fill="#F18547" opacity="1.000000" stroke="none" 
	d="
M201.543549,432.244629 
	C202.021652,433.092346 202.374496,434.276489 202.524948,435.683868 
	C202.021133,434.798431 201.719727,433.689758 201.543549,432.244629 
z"/>
<path fill="#F18547" opacity="1.000000" stroke="none" 
	d="
M203.738861,447.235168 
	C204.240829,448.193634 204.585648,449.414062 204.836212,451.039520 
	C204.355240,450.128754 203.968475,448.812897 203.738861,447.235168 
z"/>
<path fill="#F18547" opacity="1.000000" stroke="none" 
	d="
M214.377899,454.741089 
	C213.877838,453.780975 213.506042,452.485168 213.232178,450.814178 
	C213.722137,451.761108 214.114136,453.083252 214.377899,454.741089 
z"/>
<path fill="#EE712A" opacity="1.000000" stroke="none" 
	d="
M312.630219,239.709259 
	C311.785583,238.830032 310.929993,237.627762 310.098206,236.074005 
	C310.954407,236.943756 311.786835,238.164978 312.630219,239.709259 
z"/>
<path fill="#ED6C26" opacity="1.000000" stroke="none" 
	d="
M268.339600,249.217850 
	C268.009491,248.889160 268.005035,248.719635 267.971100,248.297821 
	C269.571930,248.497559 271.202271,248.949600 272.864258,249.786469 
	C271.485687,249.906540 270.075500,249.641769 268.339600,249.217850 
z"/>
<path fill="#FAD2BB" opacity="1.000000" stroke="none" 
	d="
M167.663910,205.222321 
	C168.198242,206.155350 168.490952,207.295380 168.663483,208.788940 
	C168.169647,207.904755 167.795975,206.667038 167.663910,205.222321 
z"/>
<path fill="#F18547" opacity="1.000000" stroke="none" 
	d="
M185.283325,257.741333 
	C184.819550,256.790955 184.461884,255.506058 184.197739,253.852707 
	C184.657318,254.791779 185.023376,256.099335 185.283325,257.741333 
z"/>
<path fill="#FAD2BB" opacity="1.000000" stroke="none" 
	d="
M168.672180,212.219635 
	C169.210922,213.146332 169.503067,214.279541 169.701416,215.771332 
	C169.213608,214.895340 168.819595,213.660751 168.672180,212.219635 
z"/>
<path fill="#FAD2BB" opacity="1.000000" stroke="none" 
	d="
M166.652863,198.230942 
	C167.211731,199.150909 167.530319,200.284027 167.734756,201.772095 
	C167.217926,200.899399 166.815262,199.671738 166.652863,198.230942 
z"/>
<path fill="#F18547" opacity="1.000000" stroke="none" 
	d="
M186.343231,265.788269 
	C185.881546,264.900879 185.571808,263.751556 185.466522,262.350220 
	C185.945724,263.240936 186.220444,264.383636 186.343231,265.788269 
z"/>
<path fill="#F18547" opacity="1.000000" stroke="none" 
	d="
M187.146912,271.731354 
	C186.726807,270.753113 186.435135,269.501495 186.238770,267.840332 
	C186.647827,268.773193 186.961578,270.115570 187.146912,271.731354 
z"/>
<path fill="#FAD2BB" opacity="1.000000" stroke="none" 
	d="
M163.732208,177.211792 
	C164.281021,178.137466 164.580017,179.272369 164.774109,180.761169 
	C164.273605,179.883728 163.878006,178.652374 163.732208,177.211792 
z"/>
<path fill="#F18547" opacity="1.000000" stroke="none" 
	d="
M188.082123,277.722534 
	C187.643387,276.803375 187.334808,275.619080 187.105972,274.046631 
	C187.527893,274.924805 187.870087,276.191132 188.082123,277.722534 
z"/>
<path fill="#F18547" opacity="1.000000" stroke="none" 
	d="
M178.075531,276.343719 
	C178.659088,277.147003 179.159256,278.327698 179.415726,279.725616 
	C178.778748,278.868927 178.385452,277.795044 178.075531,276.343719 
z"/>
<path fill="#F9CBB0" opacity="1.000000" stroke="none" 
	d="
M172.150848,283.798584 
	C171.775421,282.829712 171.655685,281.649139 171.742691,280.232239 
	C172.101807,281.192902 172.254166,282.389923 172.150848,283.798584 
z"/>
<path fill="#F18547" opacity="1.000000" stroke="none" 
	d="
M311.116455,280.294434 
	C312.311646,280.674164 313.620544,281.349701 315.008026,282.335449 
	C313.801117,281.960541 312.515625,281.275391 311.116455,280.294434 
z"/>
<path fill="#F18547" opacity="1.000000" stroke="none" 
	d="
M189.210678,285.753326 
	C188.734940,284.791962 188.408920,283.566803 188.169800,281.935791 
	C188.624603,282.849792 188.992508,284.169678 189.210678,285.753326 
z"/>
<path fill="#F18547" opacity="1.000000" stroke="none" 
	d="
M306.039185,276.328003 
	C306.947571,276.674225 307.955139,277.315399 309.033569,278.263702 
	C308.115723,277.921539 307.127014,277.272278 306.039185,276.328003 
z"/>
<path fill="#ED6920" opacity="1.000000" stroke="none" 
	d="
M190.025085,128.540680 
	C188.707611,129.837021 187.448181,130.300919 187.156464,127.541656 
	C187.993591,127.635872 188.937073,127.954803 190.025085,128.540680 
z"/>
<path fill="#F18547" opacity="1.000000" stroke="none" 
	d="
M202.041611,371.747681 
	C201.618408,371.098785 201.333237,370.222443 201.128754,368.981598 
	C201.532852,369.584808 201.856247,370.552521 202.041611,371.747681 
z"/>
<path fill="#F18547" opacity="1.000000" stroke="none" 
	d="
M340.211670,288.232117 
	C340.886047,287.750702 341.790558,287.416931 343.074097,287.197510 
	C342.449310,287.667847 341.445526,288.023834 340.211670,288.232117 
z"/>
<path fill="#F18547" opacity="1.000000" stroke="none" 
	d="
M203.156952,379.774445 
	C202.699570,379.091797 202.394119,378.182037 202.182129,376.891418 
	C202.620026,377.522797 202.964462,378.535065 203.156952,379.774445 
z"/>
<path fill="#EE712A" opacity="1.000000" stroke="none" 
	d="
M304.111176,225.579788 
	C303.434174,225.152267 302.718719,224.405838 302.007782,223.291748 
	C302.699097,223.703018 303.385895,224.481949 304.111176,225.579788 
z"/>
<path fill="#F18547" opacity="1.000000" stroke="none" 
	d="
M204.254242,387.780334 
	C203.837677,387.214203 203.553711,386.348938 203.450745,385.296936 
	C203.883438,385.900513 204.135147,386.690887 204.254242,387.780334 
z"/>
<path fill="#F18547" opacity="1.000000" stroke="none" 
	d="
M184.124725,249.759949 
	C183.689941,249.097198 183.388702,248.196503 183.169617,246.919067 
	C183.587265,247.535553 183.922760,248.528778 184.124725,249.759949 
z"/>
<path fill="#F18547" opacity="1.000000" stroke="none" 
	d="
M219.739166,247.591919 
	C220.587112,247.416550 221.660309,247.487610 222.925537,247.825928 
	C222.066513,248.008224 221.015457,247.923264 219.739166,247.591919 
z"/>
<path fill="#F18547" opacity="1.000000" stroke="none" 
	d="
M226.262482,248.863861 
	C226.942886,248.608795 227.811005,248.547043 228.836578,248.730042 
	C228.146103,249.002243 227.298157,249.029709 226.262482,248.863861 
z"/>
<path fill="#F18547" opacity="1.000000" stroke="none" 
	d="
M222.305603,508.806580 
	C221.858582,508.221161 221.540939,507.397980 221.413116,506.348450 
	C221.880295,506.937653 222.157623,507.753204 222.305603,508.806580 
z"/>
<path fill="#F18547" opacity="1.000000" stroke="none" 
	d="
M208.195282,414.787628 
	C207.776627,414.187561 207.513275,413.364655 207.441559,412.326538 
	C207.872299,412.929138 208.111435,413.746979 208.195282,414.787628 
z"/>
<path fill="#F18547" opacity="1.000000" stroke="none" 
	d="
M198.710602,413.209137 
	C199.185471,413.903900 199.513901,414.897675 199.727112,416.229279 
	C199.262650,415.547455 198.913391,414.527802 198.710602,413.209137 
z"/>
<path fill="#F18547" opacity="1.000000" stroke="none" 
	d="
M209.154297,420.766907 
	C208.735336,420.054871 208.459961,419.106445 208.300934,417.769714 
	C208.710831,418.431122 209.004364,419.480835 209.154297,420.766907 
z"/>
<path fill="#F18547" opacity="1.000000" stroke="none" 
	d="
M204.807922,453.220490 
	C205.269363,453.906799 205.579575,454.824219 205.788910,456.125122 
	C205.344254,455.489624 205.000473,454.470612 204.807922,453.220490 
z"/>
<path fill="#EE712A" opacity="1.000000" stroke="none" 
	d="
M277.587677,206.709763 
	C277.464661,206.098877 277.222778,205.103622 277.275696,204.035126 
	C277.536621,204.749741 277.502716,205.537552 277.587677,206.709763 
z"/>
<path fill="#F18547" opacity="1.000000" stroke="none" 
	d="
M334.291901,288.727356 
	C335.026031,288.377655 335.922058,288.242310 337.155334,288.236206 
	C336.479675,288.557556 335.466736,288.749664 334.291901,288.727356 
z"/>
<path fill="#F18547" opacity="1.000000" stroke="none" 
	d="
M197.111664,338.766541 
	C196.738571,338.171387 196.497559,337.347656 196.449127,336.314575 
	C196.842392,336.916138 197.043045,337.727020 197.111664,338.766541 
z"/>
<path fill="#F18547" opacity="1.000000" stroke="none" 
	d="
M181.846771,298.228394 
	C182.303635,298.900574 182.612427,299.802673 182.824371,301.081512 
	C182.384567,300.458252 182.041626,299.458282 181.846771,298.228394 
z"/>
<path fill="#FAD2BB" opacity="1.000000" stroke="none" 
	d="
M158.657227,143.197983 
	C159.163925,143.842484 159.441071,144.667145 159.616470,145.820602 
	C159.152374,145.225647 158.790039,144.301895 158.657227,143.197983 
z"/>
<path fill="#FAD2BB" opacity="1.000000" stroke="none" 
	d="
M162.750000,170.174057 
	C163.240891,170.835831 163.494751,171.669830 163.619720,172.827820 
	C163.164886,172.216629 162.838928,171.281448 162.750000,170.174057 
z"/>
<path fill="#F18547" opacity="1.000000" stroke="none" 
	d="
M221.180298,500.774719 
	C220.723846,500.097168 220.411179,499.183807 220.189499,497.886292 
	C220.628372,498.514374 220.976227,499.526672 221.180298,500.774719 
z"/>
<path fill="#F9CBB0" opacity="1.000000" stroke="none" 
	d="
M172.745911,272.059143 
	C172.381027,271.459717 172.281677,270.739899 172.168365,269.655273 
	C172.154388,269.290436 172.553329,269.072571 172.777710,269.036438 
	C173.005219,269.979797 173.008316,270.959290 172.745911,272.059143 
z"/>
<path fill="#F18547" opacity="1.000000" stroke="none" 
	d="
M181.803406,235.063873 
	C182.285522,234.717941 183.042999,234.122391 183.965027,233.791107 
	C183.445953,234.308334 182.762344,234.561295 181.803406,235.063873 
z"/>
<path fill="#F18547" opacity="1.000000" stroke="none" 
	d="
M179.582565,282.208008 
	C180.028915,282.794312 180.333359,283.682800 180.433762,284.753662 
	C179.966690,284.127411 179.703674,283.318817 179.582565,282.208008 
z"/>
<path fill="#F18547" opacity="1.000000" stroke="none" 
	d="
M191.853958,366.231873 
	C192.313278,366.905945 192.612076,367.808533 192.817352,369.087128 
	C192.380341,368.462219 192.036896,367.461273 191.853958,366.231873 
z"/>
<path fill="#F18547" opacity="1.000000" stroke="none" 
	d="
M187.780396,338.218506 
	C188.253128,338.903900 188.571640,339.824554 188.786102,341.129944 
	C188.330063,340.494415 187.978104,339.474060 187.780396,338.218506 
z"/>
<path fill="#F18547" opacity="1.000000" stroke="none" 
	d="
M208.722717,479.198975 
	C209.206863,479.916199 209.523407,480.861023 209.713165,482.198364 
	C209.242615,481.536102 208.898865,480.481354 208.722717,479.198975 
z"/>
<path fill="#F18547" opacity="1.000000" stroke="none" 
	d="
M200.364349,360.778076 
	C199.940491,360.205505 199.634705,359.328247 199.525696,358.266022 
	C199.975815,358.878479 200.229126,359.675934 200.364349,360.778076 
z"/>
<path fill="#F18547" opacity="1.000000" stroke="none" 
	d="
M186.092468,235.271057 
	C186.423630,235.006409 186.859985,235.005707 187.648010,235.002686 
	C187.999649,235.000366 187.960052,235.047928 187.960052,235.047928 
	C187.973831,235.295303 188.022964,235.535431 188.132324,235.950836 
	C187.504028,235.933899 186.850861,235.734467 186.092468,235.271057 
z"/>
<path fill="#F18547" opacity="1.000000" stroke="none" 
	d="
M214.722305,246.483032 
	C215.259857,246.315369 215.918106,246.366821 216.783600,246.690048 
	C216.274902,246.875275 215.558945,246.788727 214.722305,246.483032 
z"/>
<path fill="#EE712A" opacity="1.000000" stroke="none" 
	d="
M305.620911,227.748596 
	C305.119080,227.511719 304.595673,226.990417 304.092163,226.160797 
	C304.607758,226.389709 305.103546,226.926926 305.620911,227.748596 
z"/>
<path fill="#ED6920" opacity="1.000000" stroke="none" 
	d="
M301.147827,156.625732 
	C300.570129,156.575500 299.853668,156.263474 299.062561,155.642303 
	C299.661652,155.676773 300.335327,156.020355 301.147827,156.625732 
z"/>
<path fill="#EE712A" opacity="1.000000" stroke="none" 
	d="
M282.162659,209.611908 
	C281.576904,209.612030 280.862823,209.352692 280.053345,208.804581 
	C280.650055,208.794678 281.342224,209.073563 282.162659,209.611908 
z"/>
<path fill="#F18547" opacity="1.000000" stroke="none" 
	d="
M183.042114,242.776062 
	C182.669937,242.353668 182.422104,241.728027 182.278595,240.754654 
	C182.644104,241.128891 182.905304,241.850845 183.042114,242.776062 
z"/>
<path fill="#F18547" opacity="1.000000" stroke="none" 
	d="
M182.243881,238.824463 
	C181.837021,238.375717 181.556946,237.719086 181.427917,236.700134 
	C181.842865,237.097412 182.106766,237.856979 182.243881,238.824463 
z"/>
<path fill="#F18547" opacity="1.000000" stroke="none" 
	d="
M277.840820,252.447037 
	C278.424591,252.423828 279.161865,252.651001 280.006042,253.168701 
	C279.406738,253.205292 278.700562,252.951355 277.840820,252.447037 
z"/>
<path fill="#EE712A" opacity="1.000000" stroke="none" 
	d="
M377.401672,285.472656 
	C376.754089,285.331940 375.956085,284.898041 375.146606,284.075745 
	C375.840515,284.184723 376.545898,284.682098 377.401672,285.472656 
z"/>
<path fill="#EE742E" opacity="1.000000" stroke="none" 
	d="
M168.553482,282.556488 
	C168.631790,283.141235 168.478607,283.922821 168.054535,284.851990 
	C167.963089,284.250854 168.142532,283.502075 168.553482,282.556488 
z"/>
<path fill="#EE712A" opacity="1.000000" stroke="none" 
	d="
M372.932068,281.727417 
	C372.393463,281.668335 371.750031,281.351959 371.032196,280.758392 
	C371.580933,280.810852 372.204102,281.140503 372.932068,281.727417 
z"/>
<path fill="#EC6516" opacity="1.000000" stroke="none" 
	d="
M399.841248,305.513397 
	C399.847382,306.179871 399.584290,306.527313 399.030762,307.035095 
	C398.347717,306.471100 397.955139,305.746735 397.562561,305.022339 
	C398.232391,305.079651 398.902191,305.136993 399.841248,305.513397 
z"/>
<path fill="#EE712A" opacity="1.000000" stroke="none" 
	d="
M346.748535,269.004333 
	C346.301361,269.096191 345.672546,268.964966 345.006927,268.574341 
	C345.502380,268.470398 346.034637,268.625793 346.748535,269.004333 
z"/>
<path fill="#FAD2BB" opacity="1.000000" stroke="none" 
	d="
M145.331497,131.928879 
	C145.506149,132.448822 145.431229,133.035553 145.102570,133.799942 
	C144.926529,133.316956 145.004242,132.656311 145.331497,131.928879 
z"/>
<path fill="#EE712A" opacity="1.000000" stroke="none" 
	d="
M288.216034,196.298523 
	C288.469238,195.837204 288.986450,195.421509 289.773560,195.012085 
	C289.522278,195.460281 289.001160,195.902222 288.216034,196.298523 
z"/>
<path fill="#EE712A" opacity="1.000000" stroke="none" 
	d="
M343.223083,267.586914 
	C342.659241,267.633789 341.931793,267.436218 341.080322,266.967010 
	C341.657318,266.911072 342.358429,267.126770 343.223083,267.586914 
z"/>
<path fill="#EE712A" opacity="1.000000" stroke="none" 
	d="
M333.992432,262.697937 
	C333.446899,262.650269 332.782593,262.348572 332.038391,261.765259 
	C332.596863,261.803772 333.235291,262.123840 333.992432,262.697937 
z"/>
<path fill="#F18547" opacity="1.000000" stroke="none" 
	d="
M201.033051,364.801147 
	C200.722183,364.448547 200.536316,363.918976 200.533325,363.232605 
	C200.863480,363.591949 201.010773,364.108063 201.033051,364.801147 
z"/>
<path fill="#EE712A" opacity="1.000000" stroke="none" 
	d="
M283.258545,199.639343 
	C283.506439,199.134262 284.043701,198.599670 284.897400,198.079346 
	C284.658539,198.599030 284.103241,199.104431 283.258545,199.639343 
z"/>
<path fill="#EE712A" opacity="1.000000" stroke="none" 
	d="
M329.888916,259.743225 
	C329.351013,259.655457 328.719788,259.304047 328.026428,258.669434 
	C328.574707,258.750671 329.185181,259.115112 329.888916,259.743225 
z"/>
<path fill="#F18547" opacity="1.000000" stroke="none" 
	d="
M205.053223,392.807251 
	C204.734909,392.453583 204.542221,391.924438 204.531982,391.235687 
	C204.869247,391.594666 205.024063,392.113220 205.053223,392.807251 
z"/>
<path fill="#F18547" opacity="1.000000" stroke="none" 
	d="
M195.902252,394.201813 
	C196.326019,394.602661 196.607819,395.194916 196.800201,396.129822 
	C196.393936,395.779388 196.077103,395.086304 195.902252,394.201813 
z"/>
<path fill="#F18547" opacity="1.000000" stroke="none" 
	d="
M283.041168,255.305862 
	C283.595367,255.349197 284.268311,255.654358 285.023560,256.244293 
	C284.457214,256.208618 283.808563,255.888153 283.041168,255.305862 
z"/>
<path fill="#EE712A" opacity="1.000000" stroke="none" 
	d="
M279.261108,202.690674 
	C279.479828,202.164490 279.986481,201.609604 280.805725,201.052765 
	C280.595245,201.587875 280.072144,202.124939 279.261108,202.690674 
z"/>
<path fill="#F18547" opacity="1.000000" stroke="none" 
	d="
M207.085419,406.794891 
	C206.672562,406.370667 206.406189,405.757355 206.240845,404.795715 
	C206.638550,405.166840 206.935226,405.886322 207.085419,406.794891 
z"/>
<path fill="#F18547" opacity="1.000000" stroke="none" 
	d="
M200.942627,428.193054 
	C201.281189,428.545898 201.485428,429.074249 201.503754,429.759888 
	C201.147980,429.400940 200.978134,428.884735 200.942627,428.193054 
z"/>
<path fill="#F18547" opacity="1.000000" stroke="none" 
	d="
M272.931885,250.481216 
	C273.476501,250.376984 274.156494,250.521423 274.977844,250.904938 
	C274.435242,251.005981 273.751282,250.867935 272.931885,250.481216 
z"/>
<path fill="#F8BA96" opacity="1.000000" stroke="none" 
	d="
M191.021545,320.572144 
	C190.719772,321.015717 190.425491,321.034271 189.684509,321.071899 
	C188.135544,314.830322 186.958542,308.581696 185.951614,302.305725 
	C184.910904,295.819275 184.035431,289.306335 183.354630,282.275696 
	C184.084457,281.496552 184.547318,281.246674 185.010193,280.996826 
	C185.805496,286.059265 186.616104,291.119324 187.392609,296.184662 
	C188.616791,304.170288 189.818069,312.159454 191.021545,320.572144 
z"/>
<path fill="#F8B68F" opacity="1.000000" stroke="none" 
	d="
M185.015991,280.572632 
	C184.547318,281.246674 184.084457,281.496552 183.385483,281.861267 
	C181.984940,274.495728 180.820496,267.015350 179.373718,259.254486 
	C179.066208,258.242798 179.041016,257.511536 179.271881,256.306702 
	C179.800858,255.626114 179.960709,255.352966 180.007477,255.013611 
	C181.678909,263.391907 183.350342,271.770172 185.015991,280.572632 
z"/>
<path fill="#F59C68" opacity="1.000000" stroke="none" 
	d="
M178.413742,248.915573 
	C177.004608,241.466461 175.990204,233.978775 174.978149,226.025101 
	C175.966812,227.018616 177.299576,228.359360 177.850769,229.967957 
	C178.523209,231.930328 178.538971,234.117737 178.903290,236.608627 
	C179.296768,239.379013 179.843964,241.745453 179.877853,244.119232 
	C179.900406,245.699738 179.190521,247.290695 178.413742,248.915573 
z"/>
<path fill="#ED6920" opacity="1.000000" stroke="none" 
	d="
M179.848877,254.789185 
	C179.960709,255.352966 179.800858,255.626114 179.311722,255.942383 
	C178.886871,255.565140 178.678223,255.078598 178.469559,254.592041 
	C178.876465,254.582947 179.283371,254.573853 179.848877,254.789185 
z"/>
<path fill="#F8BA96" opacity="1.000000" stroke="none" 
	d="
M209.158569,463.374695 
	C209.744751,464.404968 210.277878,465.828827 210.638977,467.512268 
	C210.013138,466.437317 209.559341,465.102814 209.158569,463.374695 
z"/>
<path fill="#F8BA96" opacity="1.000000" stroke="none" 
	d="
M210.274292,470.347656 
	C210.851624,471.758514 211.313110,473.541840 211.577087,475.602844 
	C210.972549,474.160400 210.565506,472.440277 210.274292,470.347656 
z"/>
<path fill="#F8BA96" opacity="1.000000" stroke="none" 
	d="
M212.171173,484.364990 
	C212.737335,485.762909 213.253586,487.544739 213.567505,489.606262 
	C212.950546,488.173615 212.535889,486.461273 212.171173,484.364990 
z"/>
<path fill="#F8BA96" opacity="1.000000" stroke="none" 
	d="
M208.181839,457.352600 
	C208.733032,458.446472 209.238785,459.913025 209.540649,461.643219 
	C208.936661,460.512970 208.536530,459.119141 208.181839,457.352600 
z"/>
<path fill="#F8BA96" opacity="1.000000" stroke="none" 
	d="
M211.167160,477.353943 
	C211.730453,478.106628 212.242004,479.233154 212.562607,480.596222 
	C211.952911,479.797760 211.534164,478.762817 211.167160,477.353943 
z"/>
<path fill="#F8BA96" opacity="1.000000" stroke="none" 
	d="
M213.190414,491.344330 
	C213.813843,492.104919 214.397873,493.230225 214.967880,494.727539 
	C214.352905,493.969360 213.751953,492.839172 213.190414,491.344330 
z"/>
<path fill="#F8BA96" opacity="1.000000" stroke="none" 
	d="
M214.181458,498.329895 
	C214.719879,499.133087 215.215714,500.286682 215.504883,501.681488 
	C214.911774,500.841888 214.525314,499.761108 214.181458,498.329895 
z"/>
<path fill="#F8BA96" opacity="1.000000" stroke="none" 
	d="
M215.163773,505.291138 
	C215.657166,505.512207 216.120895,506.044159 216.392319,506.747864 
	C215.844711,506.480408 215.489410,506.041229 215.163773,505.291138 
z"/>
<path fill="#F6A779" opacity="1.000000" stroke="none" 
	d="
M175.335876,225.181610 
	C171.729767,204.321045 168.425797,183.164474 165.294556,161.982376 
	C164.866806,159.088806 165.300568,156.067902 165.675262,152.792114 
	C167.982025,164.542587 169.992294,176.600052 171.901337,188.673523 
	C173.262939,197.284836 174.634567,205.899643 175.701752,214.549896 
	C176.120041,217.940460 175.719894,221.432007 175.335876,225.181610 
z"/>
<path fill="#F6A779" opacity="1.000000" stroke="none" 
	d="
M166.026947,150.763245 
	C165.346130,150.685043 164.081955,150.227249 163.997910,149.609024 
	C162.561768,139.045410 161.268707,128.462341 159.965637,117.880898 
	C159.931351,117.602493 160.138123,117.294411 160.232483,117.000168 
	C160.584656,117.208031 160.936829,117.415894 161.492294,117.840126 
	C163.127975,128.807312 164.560379,139.558136 166.026947,150.763245 
z"/>
<path fill="#ED6C26" opacity="1.000000" stroke="none" 
	d="
M187.975800,235.020126 
	C188.045456,235.000397 188.138962,234.960892 188.096268,234.984665 
	C187.960052,235.047928 187.999649,235.000366 187.975800,235.020126 
z"/>
<path fill="#FFFFFE" opacity="1.000000" stroke="none" 
	d="
M287.465454,151.482590 
	C287.550323,151.370346 287.637146,151.463058 287.617920,151.440567 
	C287.598724,151.418076 287.380554,151.594833 287.465454,151.482590 
z"/>
</svg>